<?xml version="1.0" standalone="no"?>
<!DOCTYPE svg PUBLIC "-//W3C//DTD SVG 20010904//EN"
 "http://www.w3.org/TR/2001/REC-SVG-20010904/DTD/svg10.dtd">
<svg version="1.0" xmlns="http://www.w3.org/2000/svg"
 width="474.000000pt" height="474.000000pt" viewBox="0 0 474.000000 474.000000"
 preserveAspectRatio="xMidYMid meet">
<metadata>
Created by potrace 1.11, written by Peter Selinger 2001-2013
</metadata>
<g transform="translate(0.000000,474.000000) scale(0.100000,-0.100000)"
fill="#000000" stroke="none">
<path d="M3174 3932 c-39 -26 -36 -83 10 -152 22 -33 30 -64 27 -96 -2 -23
-45 -32 -102 -21 -43 8 -62 7 -84 -4 -41 -20 -66 -60 -72 -113 -5 -38 0 -58
29 -118 20 -40 53 -93 75 -118 63 -72 83 -105 115 -192 75 -207 32 -356 -92
-319 -85 25 -199 164 -229 279 -15 53 -38 55 -76 6 -19 -24 -33 -34 -48 -32
-23 3 -30 16 -87 140 -18 39 -38 69 -50 73 -28 9 -58 -14 -81 -63 -17 -35 -20
-57 -17 -120 3 -71 7 -83 50 -154 44 -71 75 -147 50 -123 -5 6 -56 99 -113
208 -156 297 -221 374 -357 419 -65 21 -82 22 -569 26 l-503 3 0 -45 c0 -43 2
-46 28 -46 15 0 71 -5 126 -10 211 -21 385 -89 489 -193 51 -51 80 -95 159
-242 l97 -180 -42 -80 c-160 -300 -392 -548 -959 -1027 -136 -116 -248 -214
-248 -220 0 -17 194 -210 255 -253 146 -104 274 -145 452 -145 146 0 231 19
361 80 126 60 200 108 519 338 l252 181 24 -42 c13 -23 64 -118 113 -212 99
-189 138 -237 233 -285 96 -48 165 -60 351 -60 149 0 472 21 543 36 24 5 27
10 27 50 l0 44 -64 0 c-147 0 -247 39 -341 133 -86 86 -150 188 -303 484
l-131 253 62 94 c34 51 70 108 79 125 19 35 51 41 96 17 35 -18 85 -72 106
-113 22 -43 21 -115 -2 -143 -27 -33 -96 -38 -158 -11 l-49 22 -22 -26 c-13
-14 -23 -29 -23 -34 0 -15 96 -53 146 -58 163 -17 258 131 181 283 -27 53
-104 132 -155 158 -17 9 -33 25 -37 36 -9 29 58 174 83 178 10 2 46 -19 83
-49 103 -82 169 -112 266 -117 76 -4 87 -2 148 27 115 53 241 212 233 294 l-3
32 -64 -3 c-70 -3 -111 14 -111 48 0 11 26 49 58 83 86 92 102 119 102 166 0
31 -6 48 -25 66 -28 28 -54 31 -94 11 -40 -21 -57 -52 -81 -147 -12 -46 -29
-92 -37 -101 -26 -29 -60 -23 -79 15 -29 56 -49 54 -80 -5 -53 -103 -167 -169
-249 -147 -119 33 -35 206 208 430 97 90 126 137 133 220 8 80 -11 213 -34
253 -26 45 -78 48 -124 7 -44 -38 -81 -48 -111 -28 -17 11 -25 31 -35 86 -14
83 -41 142 -86 189 -50 54 -109 76 -142 54z m30 -1288 c6 -16 -12 -71 -48
-142 -14 -28 -26 -58 -26 -66 0 -29 -35 -37 -105 -25 -61 10 -158 3 -209 -17
-11 -4 -25 15 -50 65 -20 39 -36 73 -36 76 0 3 17 5 39 5 59 0 220 44 292 80
98 50 131 56 143 24z m-964 -455 l138 -263 -15 -43 c-19 -56 -53 -105 -83
-121 -42 -22 -165 -10 -227 21 -104 54 -118 117 -24 117 133 0 220 93 209 224
-12 142 -142 214 -294 163 -186 -63 -243 -284 -116 -452 80 -105 220 -189 366
-219 l61 -13 -35 -22 c-116 -71 -273 -114 -420 -114 -89 -1 -117 3 -185 27
-99 34 -206 99 -282 172 l-58 56 155 150 c264 256 654 597 668 583 2 -2 66
-122 142 -266z m795 127 c24 -17 17 -35 -50 -125 l-47 -64 -44 84 c-24 46 -40
87 -36 91 24 24 150 34 177 14z"/>
</g>
</svg>
