<?xml version="1.0" encoding="UTF-8" standalone="no"?>
<!-- Created with Inkscape (http://www.inkscape.org/) -->

<svg
   xmlns:dc="http://purl.org/dc/elements/1.1/"
   xmlns:cc="http://creativecommons.org/ns#"
   xmlns:rdf="http://www.w3.org/1999/02/22-rdf-syntax-ns#"
   xmlns:svg="http://www.w3.org/2000/svg"
   xmlns="http://www.w3.org/2000/svg"
   xmlns:sodipodi="http://sodipodi.sourceforge.net/DTD/sodipodi-0.dtd"
   xmlns:inkscape="http://www.inkscape.org/namespaces/inkscape"
   width="791.00171"
   height="871.23999"
   id="svg7073"
   version="1.1"
   inkscape:version="0.48.0 r9654"
   sodipodi:docname="                            38">
  <defs
     id="defs7075" />
  <sodipodi:namedview
     id="base"
     pagecolor="#ffffff"
     bordercolor="#666666"
     borderopacity="1.0"
     inkscape:pageopacity="0.0"
     inkscape:pageshadow="2"
     inkscape:zoom="0.35"
     inkscape:cx="131.83988"
     inkscape:cy="120.22641"
     inkscape:document-units="px"
     inkscape:current-layer="layer1"
     showgrid="false"
     fit-margin-top="0"
     fit-margin-left="0"
     fit-margin-right="0"
     fit-margin-bottom="0"
     inkscape:window-width="1280"
     inkscape:window-height="904"
     inkscape:window-x="-4"
     inkscape:window-y="-4"
     inkscape:window-maximized="1" />
  <metadata
     id="metadata7078">
    <rdf:RDF>
      <cc:Work
         rdf:about="">
        <dc:format>image/svg+xml</dc:format>
        <dc:type
           rdf:resource="http://purl.org/dc/dcmitype/StillImage" />
        <dc:title></dc:title>
      </cc:Work>
    </rdf:RDF>
  </metadata>
  <g
     inkscape:label="Layer 1"
     inkscape:groupmode="layer"
     id="layer1"
     transform="translate(-243.16012,218.65138)">
    <g
       id="g6104"
       transform="matrix(3,0,0,3,2909.6894,-2710.7326)">
      <path
         style="fill:#c65b4d;fill-opacity:1;stroke:#000000;stroke-width:1.25;stroke-linecap:round;stroke-linejoin:round;stroke-miterlimit:4;stroke-opacity:1;stroke-dasharray:none;stroke-dashoffset:1.5"
         d="m -818.73389,1026.0233 c 0,0 0.91201,20.7259 3.18364,25.614 7.95911,17.1264 21.66844,21.7033 27.12619,30.5243 1.9296,3.1187 0.25253,6.566 0.25253,6.566 l 17.42513,0 c -1.04463,-1.4923 4.04303,-14.9225 7.57615,-17.9302 6.98676,-5.9478 5.43111,-34.0904 5.43111,-34.0904"
         id="path5124"
         inkscape:connector-curvature="0"
         sodipodi:nodetypes="cssccsc" />
      <path
         sodipodi:nodetypes="cssccsc"
         inkscape:connector-curvature="0"
         id="path5126"
         d="m -785.07749,1032.8266 c 0,0 -0.58473,21.2934 2.64671,26.8313 9.89931,16.9651 19.1167,11.4972 24.56121,22.8361 1.92491,4.0089 0.25191,8.4402 0.25191,8.4402 l 19.88283,-0.1786 c 0,0 -0.46836,-13.4609 3.27205,-20.5483 7.41599,-14.052 6.98231,-38.2169 6.85907,-38.16"
         style="fill:#c65b4d;fill-opacity:1;stroke:#000000;stroke-width:1.25;stroke-linecap:round;stroke-linejoin:round;stroke-miterlimit:4;stroke-opacity:1;stroke-dasharray:none;stroke-dashoffset:1.5" />
      <rect
         style="fill:#fddc64;fill-opacity:1;stroke:#000000;stroke-width:1.25;stroke-linecap:round;stroke-linejoin:round;stroke-miterlimit:4;stroke-opacity:1;stroke-dasharray:none;stroke-dashoffset:1.5"
         id="rect5128"
         width="10.926888"
         height="60.384109"
         x="-753.32715"
         y="1035.6117" />
      <path
         style="fill:#000000;fill-opacity:1;stroke:#000000;stroke-width:1.25;stroke-linecap:round;stroke-linejoin:round;stroke-miterlimit:4;stroke-opacity:1;stroke-dasharray:none;stroke-dashoffset:1.5"
         d="m -789.30795,1083.6769 c 0.50507,0 21.50907,0.2372 21.50907,0.2372 -1.29584,11.4956 -1.37904,26.4733 -0.42213,34.4867 l -43.52191,-0.8482 c -1.77522,-0.035 -1.69223,-2.0952 0.66198,-2.547 7.62125,-1.4627 12.64042,-1.2373 21.34188,-5.1604 z"
         id="path5130"
         inkscape:connector-curvature="0"
         sodipodi:nodetypes="cccsscc" />
      <path
         sodipodi:nodetypes="ccccsscc"
         inkscape:connector-curvature="0"
         id="path5132"
         d="m -757.61441,1085.4447 c 0.50507,0 21.15193,-0.5663 21.15193,-0.5663 -1.71195,10.6734 -1.76413,22.5693 -1.76142,34.2188 -4.46961,0.015 -10.1588,1.6938 -12.23761,-1.551 -4.38552,5.1915 -21.18358,1.7483 -31.77537,2.6224 -1.76955,0.146 -2.22794,-2.4523 0.12627,-2.9041 7.62125,-1.4627 15.5422,-2.2641 24.24366,-6.1872 z"
         style="fill:#000000;fill-opacity:1;stroke:#000000;stroke-width:1.25;stroke-linecap:round;stroke-linejoin:round;stroke-miterlimit:4;stroke-opacity:1;stroke-dasharray:none;stroke-dashoffset:1.5" />
      <path
         id="path5423"
         d="m -845.59375,918.4375 -12.875,15.65625 c 0.72977,0 28.02146,26.64568 51.21875,36.125 0.0387,0.0158 0.0858,0.0466 0.125,0.0625 -9.49832,18.19807 -17.34848,45.03645 -20.46875,56.68755 44.59896,9.7365 88.41949,18.4958 112.9375,8.5937 -5.36143,-20.2982 -4.86218,-40.76262 -7.59375,-56.53125 2.377,-0.30031 4.61823,-0.65047 6.40625,-1.03125 24.50974,-5.21962 56.12552,-26.59803 56.84375,-26.46875 l -9.90625,-17.71875 c -10.19248,8.20958 -42.80856,22.09853 -61.25,24.4375 -1.26086,-2.09604 -2.67197,-3.89824 -5.75,-5.90625 -9.31072,-6.074 -29.5625,-6.15625 -29.5625,-6.15625 l -22.65625,2.25 c 0,0 -2.10257,1.48432 -4.78125,3.75 -17.90362,-6.70444 -44.61707,-24.44816 -52.6875,-33.75 z"
         style="fill:#6f6a5e;fill-opacity:1;stroke:#000000;stroke-width:1;stroke-linecap:round;stroke-linejoin:round;stroke-miterlimit:4;stroke-opacity:1;stroke-dasharray:none;stroke-dashoffset:1.5"
         inkscape:connector-curvature="0" />
      <g
         style="fill:#fddc64;fill-opacity:1;stroke-width:1.25;stroke-miterlimit:4;stroke-dasharray:none"
         transform="matrix(0.99270664,-0.12055506,0.12055506,0.99270664,-120.68616,-81.744319)"
         id="g5407">
        <path
           sodipodi:nodetypes="ssssss"
           inkscape:connector-curvature="0"
           id="path5156"
           d="m -719.51746,957.2737 c 0,2.35883 -5.94965,4.27105 -13.28891,4.27105 -7.33927,0 -13.28892,-1.91222 -13.28892,-4.27105 0,-1.27819 0.36997,-4.39256 0.69965,-6.96429 0.30927,-2.41256 24.36157,-3.30116 24.99999,0 0.41076,2.12396 0.87819,4.60544 0.87819,6.96429 z"
           style="fill:#fddc64;fill-opacity:1;stroke:#000000;stroke-width:1.25;stroke-linecap:round;stroke-linejoin:round;stroke-miterlimit:4;stroke-opacity:1;stroke-dasharray:none;stroke-dashoffset:1.5" />
        <path
           d="m 387.67856,916.4693 c 0,2.36693 -5.59644,4.28571 -12.5,4.28571 -6.90356,0 -12.5,-1.91878 -12.5,-4.28571 0,-2.36694 5.59644,-4.28571 12.5,-4.28571 6.90356,0 12.5,1.91877 12.5,4.28571 z"
           sodipodi:ry="4.2857141"
           sodipodi:rx="12.5"
           sodipodi:cy="916.4693"
           sodipodi:cx="375.17856"
           id="path5158"
           style="fill:#fddc64;fill-opacity:1;stroke:#000000;stroke-width:1.25;stroke-linecap:round;stroke-linejoin:round;stroke-miterlimit:4;stroke-opacity:1;stroke-dasharray:none;stroke-dashoffset:1.5"
           sodipodi:type="arc"
           transform="translate(-1108.0743,33.84011)" />
        <path
           inkscape:connector-curvature="0"
           id="path5160"
           d="m -742.71691,952.96088 -0.63727,6.91113"
           style="fill:#fddc64;fill-opacity:1;stroke:#000000;stroke-width:1.25;stroke-linecap:round;stroke-linejoin:round;stroke-miterlimit:4;stroke-opacity:1;stroke-dasharray:none;stroke-dashoffset:1.5" />
        <path
           sodipodi:nodetypes="cc"
           inkscape:connector-curvature="0"
           id="path5162"
           d="m -738.83843,954.08075 -0.42473,6.92686"
           style="fill:#fddc64;fill-opacity:1;stroke:#000000;stroke-width:1.25;stroke-linecap:round;stroke-linejoin:round;stroke-miterlimit:4;stroke-opacity:1;stroke-dasharray:none;stroke-dashoffset:1.5" />
        <path
           sodipodi:nodetypes="cc"
           inkscape:connector-curvature="0"
           id="path5164"
           d="m -734.19264,954.57234 -0.29644,6.9385"
           style="fill:#fddc64;fill-opacity:1;stroke:#000000;stroke-width:1.25;stroke-linecap:round;stroke-linejoin:round;stroke-miterlimit:4;stroke-opacity:1;stroke-dasharray:none;stroke-dashoffset:1.5" />
        <path
           inkscape:connector-curvature="0"
           id="path5166"
           d="m -729.50525,954.43562 0.32337,6.94834"
           style="fill:#fddc64;fill-opacity:1;stroke:#000000;stroke-width:1.25;stroke-linecap:round;stroke-linejoin:round;stroke-miterlimit:4;stroke-opacity:1;stroke-dasharray:none;stroke-dashoffset:1.5" />
        <path
           inkscape:connector-curvature="0"
           id="path5168"
           d="m -725.19357,953.68515 1.07748,6.81985"
           style="fill:#fddc64;fill-opacity:1;stroke:#000000;stroke-width:1.25;stroke-linecap:round;stroke-linejoin:round;stroke-miterlimit:4;stroke-opacity:1;stroke-dasharray:none;stroke-dashoffset:1.5" />
        <path
           sodipodi:nodetypes="cc"
           inkscape:connector-curvature="0"
           id="path5170"
           d="m -722.2293,952.54519 1.48819,6.52115"
           style="fill:#fddc64;fill-opacity:1;stroke:#000000;stroke-width:1.25;stroke-linecap:round;stroke-linejoin:round;stroke-miterlimit:4;stroke-opacity:1;stroke-dasharray:none;stroke-dashoffset:1.5" />
      </g>
      <path
         sodipodi:nodetypes="cc"
         inkscape:connector-curvature="0"
         id="path5228"
         d="m -772.39469,954.51049 c -12.82346,27.5109 -17.48515,50.88611 -23.70987,78.99691"
         style="fill:none;stroke:#000000;stroke-width:1.25;stroke-miterlimit:4;stroke-dasharray:none" />
      <path
         id="path5142"
         d="m -776.40625,947.28125 -9.65625,0.9375 c 4.10357,14.78211 7.99199,50.05779 48.625,69.81245 l 19,-3 c -0.29056,-2.3851 -0.52402,-4.7283 -0.75,-7.0624 -42.63889,-19.85522 -45.69612,-39.9323 -57.21875,-60.68755 z"
         style="fill:#c65b4d;fill-opacity:1;stroke:#000000;stroke-width:1.25;stroke-linecap:round;stroke-linejoin:round;stroke-miterlimit:4;stroke-opacity:1;stroke-dasharray:none;stroke-dashoffset:1.5"
         inkscape:connector-curvature="0" />
      <g
         style="fill:#fddc64;fill-opacity:1;stroke-width:1.25;stroke-miterlimit:4;stroke-dasharray:none"
         transform="matrix(0.9138148,0.40613114,-0.40613114,0.9138148,317.24735,404.92684)"
         id="g5397">
        <path
           style="fill:#fddc64;fill-opacity:1;stroke:#000000;stroke-width:1.25;stroke-linecap:round;stroke-linejoin:round;stroke-miterlimit:4;stroke-opacity:1;stroke-dasharray:none;stroke-dashoffset:1.5"
           d="m -780.52569,948.68595 c 0,2.35884 -5.94965,4.27106 -13.28892,4.27106 -7.33927,0 -13.28892,-1.91222 -13.28892,-4.27106 0,-1.27818 0.36997,-4.39255 0.69965,-6.96428 0.30927,-2.41256 24.36157,-3.30116 24.99999,0 0.41077,2.12395 0.8782,4.60544 0.8782,6.96428 z"
           id="path5172"
           inkscape:connector-curvature="0"
           sodipodi:nodetypes="ssssss" />
        <path
           transform="translate(-1169.0824,25.252366)"
           sodipodi:type="arc"
           style="fill:#fddc64;fill-opacity:1;stroke:#000000;stroke-width:1.25;stroke-linecap:round;stroke-linejoin:round;stroke-miterlimit:4;stroke-opacity:1;stroke-dasharray:none;stroke-dashoffset:1.5"
           id="path5174"
           sodipodi:cx="375.17856"
           sodipodi:cy="916.4693"
           sodipodi:rx="12.5"
           sodipodi:ry="4.2857141"
           d="m 387.67856,916.4693 c 0,2.36693 -5.59644,4.28571 -12.5,4.28571 -6.90356,0 -12.5,-1.91878 -12.5,-4.28571 0,-2.36694 5.59644,-4.28571 12.5,-4.28571 6.90356,0 12.5,1.91877 12.5,4.28571 z" />
        <path
           style="fill:#fddc64;fill-opacity:1;stroke:#000000;stroke-width:1.25;stroke-linecap:round;stroke-linejoin:round;stroke-miterlimit:4;stroke-opacity:1;stroke-dasharray:none;stroke-dashoffset:1.5"
           d="m -803.72514,944.37313 -0.63727,6.91113"
           id="path5176"
           inkscape:connector-curvature="0" />
        <path
           style="fill:#fddc64;fill-opacity:1;stroke:#000000;stroke-width:1.25;stroke-linecap:round;stroke-linejoin:round;stroke-miterlimit:4;stroke-opacity:1;stroke-dasharray:none;stroke-dashoffset:1.5"
           d="m -799.84666,945.493 -0.42473,6.92686"
           id="path5178"
           inkscape:connector-curvature="0"
           sodipodi:nodetypes="cc" />
        <path
           style="fill:#fddc64;fill-opacity:1;stroke:#000000;stroke-width:1.25;stroke-linecap:round;stroke-linejoin:round;stroke-miterlimit:4;stroke-opacity:1;stroke-dasharray:none;stroke-dashoffset:1.5"
           d="m -795.20087,945.98459 -0.29644,6.9385"
           id="path5180"
           inkscape:connector-curvature="0"
           sodipodi:nodetypes="cc" />
        <path
           style="fill:#fddc64;fill-opacity:1;stroke:#000000;stroke-width:1.25;stroke-linecap:round;stroke-linejoin:round;stroke-miterlimit:4;stroke-opacity:1;stroke-dasharray:none;stroke-dashoffset:1.5"
           d="m -790.51348,945.84787 0.32337,6.94834"
           id="path5182"
           inkscape:connector-curvature="0" />
        <path
           style="fill:#fddc64;fill-opacity:1;stroke:#000000;stroke-width:1.25;stroke-linecap:round;stroke-linejoin:round;stroke-miterlimit:4;stroke-opacity:1;stroke-dasharray:none;stroke-dashoffset:1.5"
           d="m -786.2018,945.0974 1.07748,6.81985"
           id="path5184"
           inkscape:connector-curvature="0" />
        <path
           style="fill:#fddc64;fill-opacity:1;stroke:#000000;stroke-width:1.25;stroke-linecap:round;stroke-linejoin:round;stroke-miterlimit:4;stroke-opacity:1;stroke-dasharray:none;stroke-dashoffset:1.5"
           d="m -783.23753,943.95744 1.48819,6.52115"
           id="path5186"
           inkscape:connector-curvature="0"
           sodipodi:nodetypes="cc" />
      </g>
      <path
         transform="matrix(1.1178511,0,0,1.1178511,-706.3321,367.30664)"
         d="m -71.720832,535.16406 c 0,0.83684 -0.678391,1.51523 -1.515229,1.51523 -0.836838,0 -1.515229,-0.67839 -1.515229,-1.51523 0,-0.83684 0.678391,-1.51523 1.515229,-1.51523 0.836838,0 1.515229,0.67839 1.515229,1.51523 z"
         sodipodi:ry="1.5152289"
         sodipodi:rx="1.5152289"
         sodipodi:cy="535.16406"
         sodipodi:cx="-73.236061"
         id="path2927-8"
         style="fill:#000000;fill-opacity:1;stroke:none"
         sodipodi:type="arc" />
      <path
         transform="matrix(1.2357023,0,0,1.2357023,-703.35941,323.08014)"
         sodipodi:type="arc"
         style="fill:#000000;fill-opacity:1;stroke:none"
         id="path2929-7"
         sodipodi:cx="-73.236061"
         sodipodi:cy="535.16406"
         sodipodi:rx="1.5152289"
         sodipodi:ry="1.5152289"
         d="m -71.720832,535.16406 c 0,0.83684 -0.678391,1.51523 -1.515229,1.51523 -0.836838,0 -1.515229,-0.67839 -1.515229,-1.51523 0,-0.83684 0.678391,-1.51523 1.515229,-1.51523 0.836838,0 1.515229,0.67839 1.515229,1.51523 z" />
      <path
         d="m -71.720832,535.16406 c 0,0.83684 -0.678391,1.51523 -1.515229,1.51523 -0.836838,0 -1.515229,-0.67839 -1.515229,-1.51523 0,-0.83684 0.678391,-1.51523 1.515229,-1.51523 0.836838,0 1.515229,0.67839 1.515229,1.51523 z"
         sodipodi:ry="1.5152289"
         sodipodi:rx="1.5152289"
         sodipodi:cy="535.16406"
         sodipodi:cx="-73.236061"
         id="path2931-3"
         style="fill:#000000;fill-opacity:1;stroke:none"
         sodipodi:type="arc"
         transform="matrix(1.3535534,0,0,1.3535534,-698.12131,277.70825)" />
      <path
         sodipodi:nodetypes="cssssscscscssscc"
         inkscape:connector-curvature="0"
         id="path5427"
         d="m -854.19643,931.46932 c 0,0 -2.93202,-3.91646 -6.16071,-5.35714 -2.01418,-0.89875 -4.60876,0.57619 -6.60715,-0.35714 -2.21317,-1.03364 -2.73375,-4.44572 -5,-5.35714 -2.00495,-0.80633 -4.49937,1.23689 -6.47321,0.35714 -0.88942,-0.39642 -1.31599,-1.22004 -1.20536,-2.1875 0.0903,-0.7897 1.25,-1.5625 1.25,-1.5625 0,0 -1.46913,-1.9181 -1.42857,-3.03571 0.0396,-1.09199 1.60714,-2.85715 1.60714,-2.85715 0,0 -4.00228,1.63151 -6.07143,1.42857 -1.43159,-0.14041 -3.92857,-1.78571 -3.92857,-1.78571 0,0 7.79677,-4.54732 12.94643,-4.91071 3.95687,-0.27922 9.19216,-0.27896 13.125,0.53571 3.31044,0.68574 4.65727,2.77251 8.92857,7.58929 1.148,1.29461 0.89286,4.95536 0.89286,4.95536 l 5.80358,4.01785"
         style="fill:#e6d3a3;fill-opacity:1;stroke:#000000;stroke-width:1.25;stroke-linecap:round;stroke-linejoin:round;stroke-miterlimit:4;stroke-opacity:1;stroke-dasharray:none;stroke-dashoffset:1.5" />
      <path
         sodipodi:nodetypes="cssscscsc"
         inkscape:connector-curvature="0"
         id="path5429"
         d="m -856.42857,919.32647 c 0,0 -5.41027,1.09576 -8.03572,0.53571 -1.11977,-0.23886 -1.89103,-1.58165 -3.03571,-1.60714 -1.25111,-0.0279 -2.14629,1.49708 -3.39286,1.60714 -1.35209,0.11937 -3.92857,-1.07143 -3.92857,-1.07143 0,0 2.78601,-3.38647 4.64286,-4.46428 1.82445,-1.05901 6.07143,-1.78572 6.07143,-1.78572 0,0 -4.55236,-1.85682 -6.96429,-2.14285 -1.8952,-0.22475 -5.71429,0.35714 -5.71429,0.35714"
         style="fill:none;stroke:#000000;stroke-width:1.25;stroke-linecap:round;stroke-linejoin:round;stroke-miterlimit:4;stroke-opacity:1;stroke-dasharray:none;stroke-dashoffset:1.5" />
      <path
         sodipodi:nodetypes="ccccc"
         inkscape:connector-curvature="0"
         id="path5431"
         d="m -856.92916,936.03559 13.73205,-16.14462 -5.35714,-5.08929 -14.04456,16.68034 c 1.74108,1.69644 5.66965,4.55357 5.66965,4.55357 z"
         style="fill:#f9f9f9;fill-opacity:1;stroke:#000000;stroke-width:1.25;stroke-linecap:round;stroke-linejoin:round;stroke-miterlimit:4;stroke-opacity:1;stroke-dasharray:none;stroke-dashoffset:1.5" />
      <path
         style="fill:#e6d3a3;fill-opacity:1;stroke:#000000;stroke-width:1.25;stroke-linecap:round;stroke-linejoin:round;stroke-miterlimit:4;stroke-opacity:1;stroke-dasharray:none;stroke-dashoffset:1.5"
         d="m -663.2183,948.92213 c 0,0 3.64109,-3.2677 7.08913,-4.04939 2.15102,-0.48765 4.40719,1.46606 6.54948,0.94141 2.37254,-0.58103 3.55012,-3.82551 5.95082,-4.2763 2.12389,-0.39882 4.17075,2.09262 6.27849,1.61572 0.94975,-0.2149 1.5291,-0.93923 1.60974,-1.90965 0.0658,-0.79212 -0.92042,-1.77672 -0.92042,-1.77672 0,0 1.81576,-1.59388 1.99447,-2.69786 0.17464,-1.07866 -1.01758,-3.11621 -1.01758,-3.11621 0,0 3.60611,2.38245 5.67501,2.58794 1.43142,0.14216 4.20186,-0.98325 4.20186,-0.98325 0,0 -6.75735,-5.9838 -11.73661,-7.3469 -3.82594,-1.04738 -8.96026,-2.07059 -12.97648,-2.04049 -3.38062,0.0253 -5.10942,1.80855 -10.23995,5.69737 -1.37894,1.04521 -1.84438,4.6852 -1.84438,4.6852 l -6.47706,2.80576"
         id="path5433"
         inkscape:connector-curvature="0"
         sodipodi:nodetypes="cssssscscscssscc" />
      <path
         style="fill:none;stroke:#000000;stroke-width:1.25;stroke-linecap:round;stroke-linejoin:round;stroke-miterlimit:4;stroke-opacity:1;stroke-dasharray:none;stroke-dashoffset:1.5"
         d="m -658.65537,937.44995 c 0,0 5.09166,2.13229 7.77594,2.09631 1.14486,-0.0153 2.16375,-1.18145 3.29132,-0.98267 1.23243,0.21722 1.81221,1.88778 3.01321,2.23942 1.30266,0.38139 4.06223,-0.28275 4.06223,-0.28275 0,0 -2.07022,-3.86578 -3.68054,-5.28579 -1.58222,-1.39525 -5.60518,-2.93819 -5.60518,-2.93819 0,0 4.82752,-0.93104 7.24882,-0.74003 1.90257,0.15009 5.53422,1.46736 5.53422,1.46736"
         id="path5435"
         inkscape:connector-curvature="0"
         sodipodi:nodetypes="cssscscsc" />
      <path
         style="fill:#f9f9f9;fill-opacity:1;stroke:#000000;stroke-width:1.25;stroke-linecap:round;stroke-linejoin:round;stroke-miterlimit:4;stroke-opacity:1;stroke-dasharray:none;stroke-dashoffset:1.5"
         d="m -660.59764,954.0263 -11.65804,-19.1739 6.2487,-3.9438 11.85979,19.76037 c -2.03913,1.32334 -6.45045,3.35733 -6.45045,3.35733 z"
         id="path5437"
         inkscape:connector-curvature="0"
         sodipodi:nodetypes="ccccc" />
      <path
         id="path5144"
         d="m -820.65625,1003.75 c -1.21902,3.6856 -2.2938,7.1978 -3.28125,10.4688 27.98678,7.7717 68.51451,13.5438 106.71875,9.125 -0.50832,-3.0489 -0.95765,-6.0982 -1.3125,-9.0938 -35.83072,2.9202 -79.14526,-3.7122 -102.125,-10.5 z"
         style="fill:#fddc64;fill-opacity:1;stroke:#000000;stroke-width:1.25;stroke-linecap:round;stroke-linejoin:round;stroke-miterlimit:4;stroke-opacity:1;stroke-dasharray:none;stroke-dashoffset:1.5"
         inkscape:connector-curvature="0" />
      <path
         style="fill:#fddc64;fill-opacity:1;stroke:#000000;stroke-width:1.25;stroke-linecap:round;stroke-linejoin:round;stroke-miterlimit:4;stroke-opacity:1;stroke-dasharray:none;stroke-dashoffset:1.5"
         d="m -802.64496,938.32939 c 17.1124,17.98599 56.96011,25.42695 86.42857,7.5 -13.21848,-16.15021 -9.20205,-48.93488 -35.71428,-50.35715 -36.07951,-1.93551 -35.2824,36.99878 -50.71429,42.85715 z"
         id="path5152"
         inkscape:connector-curvature="0"
         sodipodi:nodetypes="ccsc" />
      <path
         style="fill:#c65b4d;fill-opacity:1;stroke:#000000;stroke-width:1.25;stroke-linecap:round;stroke-linejoin:round;stroke-miterlimit:4;stroke-opacity:1;stroke-dasharray:none;stroke-dashoffset:1.5"
         d="m -747.28782,945.1151 0,12.85714 c -13.44655,1.13917 -20.37636,1.90235 -33.20236,-2.04391 l -0.36907,-10.45609 c 11.86516,4.36634 21.75437,5.84838 33.57143,-0.35714 z"
         id="path5154"
         inkscape:connector-curvature="0"
         sodipodi:nodetypes="ccccc" />
      <path
         sodipodi:type="arc"
         style="fill:#e6d3a3;fill-opacity:1;stroke:#000000;stroke-width:1.09363663;stroke-linecap:round;stroke-linejoin:round;stroke-miterlimit:4;stroke-opacity:1;stroke-dasharray:none;stroke-dashoffset:1.5"
         id="path5188"
         sodipodi:cx="-69.069183"
         sodipodi:cy="499.11426"
         sodipodi:rx="17.046324"
         sodipodi:ry="21.528875"
         d="m -52.02286,499.11426 c 0,11.89007 -7.631899,21.52887 -17.046323,21.52887 -9.414425,0 -17.046324,-9.6388 -17.046324,-21.52887 0,-11.89007 7.631899,-21.52888 17.046324,-21.52888 9.414424,0 17.046323,9.63881 17.046323,21.52888 z"
         transform="matrix(1.1491941,0.12686316,-0.14464534,1.120823,-611.68211,380.99255)" />
      <path
         d="m -71.720832,535.16406 c 0,0.83684 -0.678391,1.51523 -1.515229,1.51523 -0.836838,0 -1.515229,-0.67839 -1.515229,-1.51523 0,-0.83684 0.678391,-1.51523 1.515229,-1.51523 0.836838,0 1.515229,0.67839 1.515229,1.51523 z"
         sodipodi:ry="1.5152289"
         sodipodi:rx="1.5152289"
         sodipodi:cy="535.16406"
         sodipodi:cx="-73.236061"
         id="path5190"
         style="fill:#000000;stroke:none"
         sodipodi:type="arc"
         transform="matrix(1.3904073,0.38205174,-0.38205174,1.3904073,-470.72116,210.68752)" />
      <path
         transform="matrix(1.3335877,0.36643905,-0.36643905,1.3335877,-463.52993,243.25185)"
         sodipodi:type="arc"
         style="fill:#000000;stroke:none"
         id="path5192"
         sodipodi:cx="-73.236061"
         sodipodi:cy="535.16406"
         sodipodi:rx="1.5152289"
         sodipodi:ry="1.5152289"
         d="m -71.720832,535.16406 c 0,0.83684 -0.678391,1.51523 -1.515229,1.51523 -0.836838,0 -1.515229,-0.67839 -1.515229,-1.51523 0,-0.83684 0.678391,-1.51523 1.515229,-1.51523 0.836838,0 1.515229,0.67839 1.515229,1.51523 z" />
      <path
         style="fill:#000000;stroke:#000000;stroke-width:1.25;stroke-linecap:round;stroke-linejoin:round;stroke-miterlimit:4;stroke-opacity:1;stroke-dasharray:none;stroke-dashoffset:1.5"
         d="m -782.85969,937.12594 c 5.62022,7.46186 10.25481,0.63201 15.27002,-0.67876 4.78318,4.08609 9.49467,10.39416 14.59805,4.55408 -4.07266,11.03751 -9.91031,1.58739 -15.22939,-1.39735 -9.72803,4.93091 -13.6428,3.33839 -14.63868,-2.47797 z"
         id="path5194"
         inkscape:connector-curvature="0"
         sodipodi:nodetypes="ccccc" />
      <path
         style="fill:#8a5b57;fill-opacity:1;stroke:#000000;stroke-width:1.25;stroke-linecap:round;stroke-linejoin:round;stroke-miterlimit:4;stroke-opacity:1;stroke-dasharray:none;stroke-dashoffset:1.5"
         d="m -743.98871,919.77524 c -6.07275,22.18779 -14.91413,30.18316 -25.625,35.46875 0.82864,0.24815 1.68202,0.42996 2.5625,0.53125 7.3505,0.8456 13.48866,-4.38631 18.4375,-11.375 5.37444,-7.58972 7.93447,-16.54403 10.82589,-22.63393 z"
         id="path5196"
         inkscape:connector-curvature="0"
         sodipodi:nodetypes="ccsscc" />
      <path
         sodipodi:nodetypes="ccccsc"
         inkscape:connector-curvature="0"
         id="path5198"
         d="m -802.64496,938.32939 c 14.12871,-5.7415 18.17729,-10.09393 21.89045,-16.86272 5.07867,11.30047 17.54657,11.40842 34.16182,-0.98829 5.88006,26.11159 22.162,24.82612 30.3763,25.35101 -13.21848,-16.15021 -9.20205,-48.93488 -35.71428,-50.35715 -36.07951,-1.93551 -35.2824,36.99878 -50.71429,42.85715 z"
         style="fill:#fddc64;fill-opacity:1;stroke:#000000;stroke-width:1.25;stroke-linecap:round;stroke-linejoin:round;stroke-miterlimit:4;stroke-opacity:1;stroke-dasharray:none;stroke-dashoffset:1.5" />
      <path
         style="fill:#8a5b57;fill-opacity:1;stroke:#000000;stroke-width:1.25;stroke-linecap:round;stroke-linejoin:round;stroke-miterlimit:4;stroke-opacity:1;stroke-dasharray:none;stroke-dashoffset:1.5"
         d="m -779.60925,920.02582 c 3.75482,-1.10932 7.89201,-2.67889 12.14286,-2.67858 6.83168,4.9e-4 8.37884,0.72945 12.85714,2.85715 0.91951,0.43687 2.58946,0.1498 2.94643,-0.80357 0.37628,-1.00495 -0.9027,-2.06883 -1.78571,-2.67858 -4.04573,-2.79371 -9.45845,-3.31851 -14.375,-3.30357 -3.88377,0.0118 -7.98914,0.71381 -11.33929,2.67857 -0.83584,0.49019 -1.94613,1.17405 -1.96428,2.14286 -0.0146,0.78108 0.76865,2.00706 1.51785,1.78572 z"
         id="path5200"
         inkscape:connector-curvature="0"
         sodipodi:nodetypes="sssssssss" />
      <path
         style="fill:#fddc64;fill-opacity:1;stroke:#000000;stroke-width:1.25;stroke-linecap:round;stroke-linejoin:round;stroke-miterlimit:4;stroke-opacity:1;stroke-dasharray:none;stroke-dashoffset:1.5"
         d="m -730.33246,912.05649 c 0.12205,0.007 0.25387,0.024 0.375,0.0312 8.79329,-37.73423 -31.86211,-40.4269 -35.375,-5.71875 4.26316,-4.61714 7.84241,-11.79761 15.59375,-10.70313 10.41119,1.47005 15.73563,7.99552 19.40625,16.39063 z"
         id="path5202"
         inkscape:connector-curvature="0"
         sodipodi:nodetypes="cccscc" />
      <path
         id="path5204"
         style="fill:#fddc64;fill-opacity:1;stroke:#000000;stroke-width:1.25;stroke-linecap:round;stroke-linejoin:round;stroke-miterlimit:4;stroke-opacity:1;stroke-dasharray:none;stroke-dashoffset:1.5"
         d="m -765.33246,906.36894 c 1.83579,-18.13803 13.8151,-26.062 23.57988,-24.10861 l -5.84466,-0.73087 c -9.76478,-1.95339 -21.74409,5.97058 -23.57988,24.10861"
         inkscape:connector-curvature="0"
         sodipodi:nodetypes="cccc" />
    </g>
  </g>
</svg>
