<?xml version="1.0" standalone="no"?>
<!DOCTYPE svg PUBLIC "-//W3C//DTD SVG 20010904//EN"
 "http://www.w3.org/TR/2001/REC-SVG-20010904/DTD/svg10.dtd">
<svg version="1.0" xmlns="http://www.w3.org/2000/svg"
 width="450.000000pt" height="449.000000pt" viewBox="0 0 450.000000 449.000000"
 preserveAspectRatio="xMidYMid meet">
<metadata>
Created by potrace 1.13, written by Peter Selinger 2001-2015
</metadata>
<g transform="translate(0.000000,449.000000) scale(0.100000,-0.100000)"
fill="#000000" stroke="none">
<path d="M1965 3971 c8 -16 28 -40 45 -55 l32 -26 -30 0 c-16 0 -50 7 -77 14
-50 15 -51 8 -2 -17 27 -14 27 -14 -45 -32 -178 -42 -282 -119 -333 -242 -20
-48 -46 -86 -86 -128 -65 -67 -108 -151 -118 -228 -3 -30 5 -166 19 -322 l26
-270 -28 -8 c-35 -10 -43 -37 -35 -136 11 -136 84 -380 125 -418 14 -13 31
-22 38 -19 9 3 17 -14 25 -52 18 -87 75 -245 125 -343 l44 -89 -7 -160 c-3
-90 -11 -167 -17 -175 -6 -8 -40 -25 -76 -39 l-65 -24 -7 -73 c-9 -88 -30
-160 -60 -213 -22 -37 -44 -49 -598 -307 -316 -147 -611 -285 -655 -306 -134
-63 -205 -155 -205 -265 l0 -38 2250 0 2250 0 0 38 c0 57 -26 124 -67 172 -42
48 -106 80 -882 441 -306 142 -488 232 -497 245 -26 38 -55 135 -67 222 l-13
84 -64 24 c-36 14 -70 31 -76 39 -6 8 -14 85 -17 174 l-7 160 44 88 c46 91
104 250 125 340 8 34 18 53 30 56 24 6 64 62 84 117 51 144 89 361 73 424 -4
17 -16 28 -34 33 l-28 8 26 277 c28 299 27 370 -8 471 -26 74 -56 114 -100
135 -28 14 -38 26 -49 64 -14 51 -71 109 -173 178 -153 104 -280 138 -558 149
-162 6 -182 9 -234 33 l-58 27 15 -28z m439 -602 c91 -33 149 -86 193 -176 36
-73 38 -82 37 -168 -1 -136 -47 -233 -195 -410 -28 -33 -67 -94 -87 -134 -35
-71 -37 -80 -37 -173 l0 -98 -107 0 -107 0 -7 36 c-10 55 3 181 24 244 31 89
55 130 144 241 123 155 159 252 123 344 -44 118 -202 148 -364 70 l-72 -35 -8
23 c-5 12 -20 51 -35 86 -14 35 -25 65 -23 66 1 0 13 8 27 16 44 27 161 70
229 85 84 17 193 11 265 -17z m-97 -1309 c44 -19 78 -62 88 -111 9 -40 -13
-108 -44 -140 -109 -109 -296 -8 -267 144 9 46 53 95 101 112 53 19 72 18 122
-5z"/>
<path d="M2124 3346 c-76 -19 -194 -69 -194 -83 0 -6 9 -32 20 -58 16 -38 23
-45 34 -36 51 42 224 66 305 42 49 -15 98 -57 122 -103 17 -34 20 -54 17 -112
-6 -95 -35 -159 -128 -276 -86 -107 -122 -165 -145 -230 -17 -48 -36 -205 -28
-227 4 -9 26 -13 73 -13 l67 0 5 73 c9 121 67 236 199 392 27 33 67 94 87 134
35 71 37 80 37 175 0 96 -2 104 -34 164 -61 112 -152 164 -296 169 -51 1 -112
-3 -141 -11z"/>
<path d="M2178 2024 c-75 -40 -78 -160 -6 -204 85 -51 188 4 188 100 0 92 -99
149 -182 104z"/>
</g>
</svg>
