<svg width="791.00171" height="725" xmlns="http://www.w3.org/2000/svg">

 <metadata id="metadata7078">image/svg+xml</metadata>
 <g>
  <title>background</title>
  <rect fill="none" id="canvas_background" height="727" width="793.00171" y="-1" x="-1"/>
 </g>
 <g>
  <title>Layer 1</title>
  <g id="layer1">
   <g transform="matrix(3,0,0,3,2909.6894,-2710.7326) " id="g6104">
    <path fill="#c65b4d" stroke="#000000" stroke-width="1.25" stroke-linecap="round" stroke-linejoin="round" stroke-miterlimit="4" stroke-dashoffset="1.5" id="path5124" d="m-900.453936,1049.573475c0,0 0.91201,20.7259 3.18364,25.614c7.95911,17.1264 21.66844,21.7033 27.12619,30.5243c1.9296,3.1187 0.25253,6.566 0.25253,6.566l17.42513,0c-1.04463,-1.4923 4.04303,-14.9225 7.57615,-17.9302c6.98676,-5.9478 5.43111,-34.0904 5.43111,-34.0904"/>
    <path fill="#c65b4d" stroke="#000000" stroke-width="1.25" stroke-linecap="round" stroke-linejoin="round" stroke-miterlimit="4" stroke-dashoffset="1.5" d="m-866.797536,1056.376775c0,0 -0.58473,21.2934 2.64671,26.8313c9.89931,16.9651 19.1167,11.4972 24.56121,22.8361c1.92491,4.0089 0.25191,8.4402 0.25191,8.4402l19.88283,-0.1786c0,0 -0.46836,-13.4609 3.27205,-20.5483c7.41599,-14.052 6.98231,-38.2169 6.85907,-38.16" id="path5126"/>
    <rect fill="#fddc64" stroke="#000000" stroke-width="1.25" stroke-linecap="round" stroke-linejoin="round" stroke-miterlimit="4" stroke-dashoffset="1.5" y="1059.161875" x="-835.047196" height="60.384109" width="10.926888" id="rect5128"/>
    <path fill="#000000" stroke="#000000" stroke-width="1.25" stroke-linecap="round" stroke-linejoin="round" stroke-miterlimit="4" stroke-dashoffset="1.5" id="path5130" d="m-871.027996,1107.227075c0.50507,0 21.50907,0.2372 21.50907,0.2372c-1.29584,11.4956 -1.37904,26.4733 -0.42213,34.4867l-43.52191,-0.8482c-1.77522,-0.035 -1.69223,-2.0952 0.66198,-2.547c7.62125,-1.4627 12.64042,-1.2373 21.34188,-5.1604l0.43111,-26.1683z"/>
    <path fill="#000000" stroke="#000000" stroke-width="1.25" stroke-linecap="round" stroke-linejoin="round" stroke-miterlimit="4" stroke-dashoffset="1.5" d="m-839.334456,1108.994875c0.50507,0 21.15193,-0.5663 21.15193,-0.5663c-1.71195,10.6734 -1.76413,22.5693 -1.76142,34.2188c-4.46961,0.015 -10.1588,1.6938 -12.23761,-1.551c-4.38552,5.1915 -21.18358,1.7483 -31.77537,2.6224c-1.76955,0.146 -2.22794,-2.4523 0.12627,-2.9041c7.62125,-1.4627 15.5422,-2.2641 24.24366,-6.1872l0.25254,-25.6326z" id="path5132"/>
    <path fill="#6f6a5e" stroke="#000000" stroke-linecap="round" stroke-linejoin="round" stroke-miterlimit="4" stroke-dashoffset="1.5" d="m-927.313796,941.987675l-12.875,15.65625c0.72977,0 28.02146,26.64568 51.21875,36.125c0.0387,0.0158 0.0858,0.0466 0.125,0.0625c-9.49832,18.19807 -17.34848,45.03645 -20.46875,56.68755c44.59896,9.7365 88.41949,18.4958 112.9375,8.5937c-5.36143,-20.2982 -4.86218,-40.76262 -7.59375,-56.53125c2.377,-0.30031 4.61823,-0.65047 6.40625,-1.03125c24.50974,-5.21962 56.12552,-26.59803 56.84375,-26.46875l-9.90625,-17.71875c-10.19248,8.20958 -42.80856,22.09853 -61.25,24.4375c-1.26086,-2.09604 -2.67197,-3.89824 -5.75,-5.90625c-9.31072,-6.074 -29.5625,-6.15625 -29.5625,-6.15625l-22.65625,2.25c0,0 -2.10257,1.48432 -4.78125,3.75c-17.90362,-6.70444 -44.61707,-24.44816 -52.6875,-33.75z" id="path5423"/>
    <g fill="#fddc64" stroke-width="1.25" stroke-miterlimit="4" id="g5407" transform="matrix(0.99270664,-0.12055506,0.12055506,0.99270664,-120.68616,-81.744319) ">
     <path fill="#fddc64" stroke="#000000" stroke-width="1.25" stroke-linecap="round" stroke-linejoin="round" stroke-miterlimit="4" stroke-dashoffset="1.5" d="m-803.480584,970.800349c0,2.35883 -5.94965,4.27105 -13.28891,4.27105c-7.33927,0 -13.28892,-1.91222 -13.28892,-4.27105c0,-1.27819 0.36997,-4.39256 0.69965,-6.96429c0.30927,-2.41256 24.36157,-3.30116 24.99999,0c0.41076,2.12396 0.87819,4.60544 0.87819,6.96429z" id="path5156"/>
     <path fill="#fddc64" stroke="#000000" stroke-width="1.25" stroke-linecap="round" stroke-linejoin="round" stroke-miterlimit="4" stroke-dashoffset="1.5" id="path5158" d="m-804.358905,963.83606c0,2.36693 -5.59644,4.28571 -12.5,4.28571c-6.90356,0 -12.5,-1.91878 -12.5,-4.28571c0,-2.36694 5.59644,-4.28571 12.5,-4.28571c6.90356,0 12.5,1.91877 12.5,4.28571z"/>
     <path fill="#fddc64" stroke="#000000" stroke-width="1.25" stroke-linecap="round" stroke-linejoin="round" stroke-miterlimit="4" stroke-dashoffset="1.5" d="m-826.680034,966.487529l-0.63727,6.91113" id="path5160"/>
     <path fill="#fddc64" stroke="#000000" stroke-width="1.25" stroke-linecap="round" stroke-linejoin="round" stroke-miterlimit="4" stroke-dashoffset="1.5" d="m-822.801554,967.607399l-0.42473,6.92686" id="path5162"/>
     <path fill="#fddc64" stroke="#000000" stroke-width="1.25" stroke-linecap="round" stroke-linejoin="round" stroke-miterlimit="4" stroke-dashoffset="1.5" d="m-818.155764,968.098989l-0.29644,6.9385" id="path5164"/>
     <path fill="#fddc64" stroke="#000000" stroke-width="1.25" stroke-linecap="round" stroke-linejoin="round" stroke-miterlimit="4" stroke-dashoffset="1.5" d="m-813.468374,967.962269l0.32337,6.94834" id="path5166"/>
     <path fill="#fddc64" stroke="#000000" stroke-width="1.25" stroke-linecap="round" stroke-linejoin="round" stroke-miterlimit="4" stroke-dashoffset="1.5" d="m-809.156694,967.211799l1.07748,6.81985" id="path5168"/>
     <path fill="#fddc64" stroke="#000000" stroke-width="1.25" stroke-linecap="round" stroke-linejoin="round" stroke-miterlimit="4" stroke-dashoffset="1.5" d="m-806.192424,966.071839l1.48819,6.52115" id="path5170"/>
    </g>
    <path fill="none" stroke="#000000" stroke-width="1.25" stroke-miterlimit="4" d="m-854.114736,978.060665c-12.82346,27.5109 -17.48515,50.88611 -23.70987,78.99691" id="path5228"/>
    <path fill="#c65b4d" stroke="#000000" stroke-width="1.25" stroke-linecap="round" stroke-linejoin="round" stroke-miterlimit="4" stroke-dashoffset="1.5" d="m-858.126296,970.831425l-9.65625,0.9375c4.10357,14.78211 7.99199,50.05779 48.625,69.81245l19,-3c-0.29056,-2.3851 -0.52402,-4.7283 -0.75,-7.0624c-42.63889,-19.85522 -45.69612,-39.9323 -57.21875,-60.68755z" id="path5142"/>
    <g fill="#fddc64" stroke-width="1.25" stroke-miterlimit="4" id="g5397" transform="matrix(0.9138148,0.40613114,-0.40613114,0.9138148,317.24735,404.92684) ">
     <path fill="#fddc64" stroke="#000000" stroke-width="1.25" stroke-linecap="round" stroke-linejoin="round" stroke-miterlimit="4" stroke-dashoffset="1.5" id="path5172" d="m-845.63822,1003.395503c0,2.35884 -5.94965,4.27106 -13.28892,4.27106c-7.33927,0 -13.28892,-1.91222 -13.28892,-4.27106c0,-1.27818 0.36997,-4.39255 0.69965,-6.96428c0.30927,-2.41256 24.36157,-3.30116 24.99999,0c0.41077,2.12395 0.8782,4.60544 0.8782,6.96428z"/>
     <path fill="#fddc64" stroke="#000000" stroke-width="1.25" stroke-linecap="round" stroke-linejoin="round" stroke-miterlimit="4" stroke-dashoffset="1.5" d="m-846.516367,996.431218c0,2.36693 -5.59644,4.28571 -12.5,4.28571c-6.90356,0 -12.5,-1.91878 -12.5,-4.28571c0,-2.36694 5.59644,-4.28571 12.5,-4.28571c6.90356,0 12.5,1.91877 12.5,4.28571z" id="path5174"/>
     <path fill="#fddc64" stroke="#000000" stroke-width="1.25" stroke-linecap="round" stroke-linejoin="round" stroke-miterlimit="4" stroke-dashoffset="1.5" id="path5176" d="m-868.83767,999.082683l-0.63727,6.91113"/>
     <path fill="#fddc64" stroke="#000000" stroke-width="1.25" stroke-linecap="round" stroke-linejoin="round" stroke-miterlimit="4" stroke-dashoffset="1.5" id="path5178" d="m-864.95919,1000.202553l-0.42473,6.92686"/>
     <path fill="#fddc64" stroke="#000000" stroke-width="1.25" stroke-linecap="round" stroke-linejoin="round" stroke-miterlimit="4" stroke-dashoffset="1.5" id="path5180" d="m-860.3134,1000.694143l-0.29644,6.9385"/>
     <path fill="#fddc64" stroke="#000000" stroke-width="1.25" stroke-linecap="round" stroke-linejoin="round" stroke-miterlimit="4" stroke-dashoffset="1.5" id="path5182" d="m-855.62601,1000.557423l0.32337,6.94834"/>
     <path fill="#fddc64" stroke="#000000" stroke-width="1.25" stroke-linecap="round" stroke-linejoin="round" stroke-miterlimit="4" stroke-dashoffset="1.5" id="path5184" d="m-851.31433,999.806953l1.07748,6.81985"/>
     <path fill="#fddc64" stroke="#000000" stroke-width="1.25" stroke-linecap="round" stroke-linejoin="round" stroke-miterlimit="4" stroke-dashoffset="1.5" id="path5186" d="m-848.35006,998.666993l1.48819,6.52115"/>
    </g>
    <path fill="#000000" id="path2927-8" d="m-868.225355,989.090548c0,0.935463 -0.758339,1.693802 -1.693802,1.693802c-0.935463,0 -1.693802,-0.758339 -1.693802,-1.693802c0,-0.935463 0.758339,-1.693802 1.693802,-1.693802c0.935463,0 1.693802,0.758339 1.693802,1.693802z"/>
    <path fill="#000000" d="m-873.70505,1007.933775c0,1.034085 -0.838288,1.872373 -1.872373,1.872373c-1.034085,0 -1.872373,-0.838288 -1.872373,-1.872373c0,-1.034085 0.838288,-1.872373 1.872373,-1.872373c1.034085,0 1.872373,0.838288 1.872373,1.872373z" id="path2929-7"/>
    <path fill="#000000" id="path2931-3" d="m-876.919329,1025.631558c0,1.132708 -0.918237,2.050945 -2.050945,2.050945c-1.132708,0 -2.050945,-0.918237 -2.050945,-2.050945c0,-1.132708 0.918237,-2.050945 2.050945,-2.050945c1.132708,0 2.050945,0.918237 2.050945,2.050945z"/>
    <path fill="#e6d3a3" stroke="#000000" stroke-width="1.25" stroke-linecap="round" stroke-linejoin="round" stroke-miterlimit="4" stroke-dashoffset="1.5" d="m-935.916476,955.019495c0,0 -2.93202,-3.91646 -6.16071,-5.35714c-2.01418,-0.89875 -4.60876,0.57619 -6.60715,-0.35714c-2.21317,-1.03364 -2.73375,-4.44572 -5,-5.35714c-2.00495,-0.80633 -4.49937,1.23689 -6.47321,0.35714c-0.88942,-0.39642 -1.31599,-1.22004 -1.20536,-2.1875c0.0903,-0.7897 1.25,-1.5625 1.25,-1.5625c0,0 -1.46913,-1.9181 -1.42857,-3.03571c0.0396,-1.09199 1.60714,-2.85715 1.60714,-2.85715c0,0 -4.00228,1.63151 -6.07143,1.42857c-1.43159,-0.14041 -3.92857,-1.78571 -3.92857,-1.78571c0,0 7.79677,-4.54732 12.94643,-4.91071c3.95687,-0.27922 9.19216,-0.27896 13.125,0.53571c3.31044,0.68574 4.65727,2.77251 8.92857,7.58929c1.148,1.29461 0.89286,4.95536 0.89286,4.95536l5.80358,4.01785" id="path5427"/>
    <path fill="none" stroke="#000000" stroke-width="1.25" stroke-linecap="round" stroke-linejoin="round" stroke-miterlimit="4" stroke-dashoffset="1.5" d="m-938.148616,942.876645c0,0 -5.41027,1.09576 -8.03572,0.53571c-1.11977,-0.23886 -1.89103,-1.58165 -3.03571,-1.60714c-1.25111,-0.0279 -2.14629,1.49708 -3.39286,1.60714c-1.35209,0.11937 -3.92857,-1.07143 -3.92857,-1.07143c0,0 2.78601,-3.38647 4.64286,-4.46428c1.82445,-1.05901 6.07143,-1.78572 6.07143,-1.78572c0,0 -4.55236,-1.85682 -6.96429,-2.14285c-1.8952,-0.22475 -5.71429,0.35714 -5.71429,0.35714" id="path5429"/>
    <path fill="#f9f9f9" stroke="#000000" stroke-width="1.25" stroke-linecap="round" stroke-linejoin="round" stroke-miterlimit="4" stroke-dashoffset="1.5" d="m-938.649206,959.585765l13.73205,-16.14462l-5.35714,-5.08929l-14.04456,16.68034c1.74108,1.69644 5.66965,4.55357 5.66965,4.55357z" id="path5431"/>
    <path fill="#e6d3a3" stroke="#000000" stroke-width="1.25" stroke-linecap="round" stroke-linejoin="round" stroke-miterlimit="4" stroke-dashoffset="1.5" id="path5433" d="m-744.938346,972.472305c0,0 3.64109,-3.2677 7.08913,-4.04939c2.15102,-0.48765 4.40719,1.46606 6.54948,0.94141c2.37254,-0.58103 3.55012,-3.82551 5.95082,-4.2763c2.12389,-0.39882 4.17075,2.09262 6.27849,1.61572c0.94975,-0.2149 1.5291,-0.93923 1.60974,-1.90965c0.0658,-0.79212 -0.92042,-1.77672 -0.92042,-1.77672c0,0 1.81576,-1.59388 1.99447,-2.69786c0.17464,-1.07866 -1.01758,-3.11621 -1.01758,-3.11621c0,0 3.60611,2.38245 5.67501,2.58794c1.43142,0.14216 4.20186,-0.98325 4.20186,-0.98325c0,0 -6.75735,-5.9838 -11.73661,-7.3469c-3.82594,-1.04738 -8.96026,-2.07059 -12.97648,-2.04049c-3.38062,0.0253 -5.10942,1.80855 -10.23995,5.69737c-1.37894,1.04521 -1.84438,4.6852 -1.84438,4.6852l-6.47706,2.80576"/>
    <path fill="none" stroke="#000000" stroke-width="1.25" stroke-linecap="round" stroke-linejoin="round" stroke-miterlimit="4" stroke-dashoffset="1.5" id="path5435" d="m-740.375416,961.000125c0,0 5.09166,2.13229 7.77594,2.09631c1.14486,-0.0153 2.16375,-1.18145 3.29132,-0.98267c1.23243,0.21722 1.81221,1.88778 3.01321,2.23942c1.30266,0.38139 4.06223,-0.28275 4.06223,-0.28275c0,0 -2.07022,-3.86578 -3.68054,-5.28579c-1.58222,-1.39525 -5.60518,-2.93819 -5.60518,-2.93819c0,0 4.82752,-0.93104 7.24882,-0.74003c1.90257,0.15009 5.53422,1.46736 5.53422,1.46736"/>
    <path fill="#f9f9f9" stroke="#000000" stroke-width="1.25" stroke-linecap="round" stroke-linejoin="round" stroke-miterlimit="4" stroke-dashoffset="1.5" id="path5437" d="m-742.317686,977.576475l-11.65804,-19.1739l6.2487,-3.9438l11.85979,19.76037c-2.03913,1.32334 -6.45045,3.35733 -6.45045,3.35733z"/>
    <path fill="#fddc64" stroke="#000000" stroke-width="1.25" stroke-linecap="round" stroke-linejoin="round" stroke-miterlimit="4" stroke-dashoffset="1.5" d="m-902.376296,1027.300175c-1.21902,3.6856 -2.2938,7.1978 -3.28125,10.4688c27.98678,7.7717 68.51451,13.5438 106.71875,9.125c-0.50832,-3.0489 -0.95765,-6.0982 -1.3125,-9.0938c-35.83072,2.9202 -79.14526,-3.7122 -102.125,-10.5z" id="path5144"/>
    <path fill="#fddc64" stroke="#000000" stroke-width="1.25" stroke-linecap="round" stroke-linejoin="round" stroke-miterlimit="4" stroke-dashoffset="1.5" id="path5152" d="m-884.365006,961.879565c17.1124,17.98599 56.96011,25.42695 86.42857,7.5c-13.21848,-16.15021 -9.20205,-48.93488 -35.71428,-50.35715c-36.07951,-1.93551 -35.2824,36.99878 -50.71429,42.85715z"/>
    <path fill="#c65b4d" stroke="#000000" stroke-width="1.25" stroke-linecap="round" stroke-linejoin="round" stroke-miterlimit="4" stroke-dashoffset="1.5" id="path5154" d="m-829.007866,968.665275l0,12.85714c-13.44655,1.13917 -20.37636,1.90235 -33.20236,-2.04391l-0.36907,-10.45609c11.86516,4.36634 21.75437,5.84838 33.57143,-0.35714z"/>
    <path fill="#e6d3a3" stroke="#000000" stroke-width="1.093637" stroke-linecap="round" stroke-linejoin="round" stroke-miterlimit="4" stroke-dashoffset="1.5" d="m-825.381071,957.361683c-1.719843,13.326664 -11.884585,23.161846 -22.703581,21.967503c-10.819007,-1.194344 -18.195334,-12.96594 -16.475491,-26.292604c1.719843,-13.326664 11.884587,-23.161857 22.703594,-21.967513c10.818996,1.194343 18.195321,12.96595 16.475478,26.292614z" id="path5188"/>
    <path fill="#000000" id="path5190" d="m-856.622732,950.932643c-0.319716,1.163548 -1.522135,1.847607 -2.685683,1.527891c-1.163548,-0.319716 -1.847607,-1.522135 -1.527891,-2.685683c0.319716,-1.163548 1.522135,-1.847607 2.685683,-1.527891c1.163548,0.319716 1.847607,1.522135 1.527891,2.685683z"/>
    <path fill="#000000" d="m-837.001002,954.20892c-0.306651,1.116 -1.459932,1.772104 -2.575932,1.465453c-1.116,-0.306651 -1.772104,-1.459932 -1.465453,-2.575932c0.306651,-1.116 1.459932,-1.772104 2.575932,-1.465453c1.116,0.306651 1.772104,1.459932 1.465453,2.575932z" id="path5192"/>
    <path fill="#000000" stroke="#000000" stroke-width="1.25" stroke-linecap="round" stroke-linejoin="round" stroke-miterlimit="4" stroke-dashoffset="1.5" id="path5194" d="m-864.579736,960.676115c5.62022,7.46186 10.25481,0.63201 15.27002,-0.67876c4.78318,4.08609 9.49467,10.39416 14.59805,4.55408c-4.07266,11.03751 -9.91031,1.58739 -15.22939,-1.39735c-9.72803,4.93091 -13.6428,3.33839 -14.63868,-2.47797z"/>
    <path fill="#8a5b57" stroke="#000000" stroke-width="1.25" stroke-linecap="round" stroke-linejoin="round" stroke-miterlimit="4" stroke-dashoffset="1.5" id="path5196" d="m-825.708756,943.325415c-6.07275,22.18779 -14.91413,30.18316 -25.625,35.46875c0.82864,0.24815 1.68202,0.42996 2.5625,0.53125c7.3505,0.8456 13.48866,-4.38631 18.4375,-11.375c5.37444,-7.58972 7.93447,-16.54403 10.82589,-22.63393l-6.20089,-1.99107z"/>
    <path fill="#fddc64" stroke="#000000" stroke-width="1.25" stroke-linecap="round" stroke-linejoin="round" stroke-miterlimit="4" stroke-dashoffset="1.5" d="m-884.365006,961.879565c14.12871,-5.7415 18.17729,-10.09393 21.89045,-16.86272c5.07867,11.30047 17.54657,11.40842 34.16182,-0.98829c5.88006,26.11159 22.162,24.82612 30.3763,25.35101c-13.21848,-16.15021 -9.20205,-48.93488 -35.71428,-50.35715c-36.07951,-1.93551 -35.2824,36.99878 -50.71429,42.85715z" id="path5198"/>
    <path fill="#8a5b57" stroke="#000000" stroke-width="1.25" stroke-linecap="round" stroke-linejoin="round" stroke-miterlimit="4" stroke-dashoffset="1.5" id="path5200" d="m-861.329296,943.575995c3.75482,-1.10932 7.89201,-2.67889 12.14286,-2.67858c6.83168,0.00049 8.37884,0.72945 12.85714,2.85715c0.91951,0.43687 2.58946,0.1498 2.94643,-0.80357c0.37628,-1.00495 -0.9027,-2.06883 -1.78571,-2.67858c-4.04573,-2.79371 -9.45845,-3.31851 -14.375,-3.30357c-3.88377,0.0118 -7.98914,0.71381 -11.33929,2.67857c-0.83584,0.49019 -1.94613,1.17405 -1.96428,2.14286c-0.0146,0.78108 0.76865,2.00706 1.51785,1.78572z"/>
    <path fill="#fddc64" stroke="#000000" stroke-width="1.25" stroke-linecap="round" stroke-linejoin="round" stroke-miterlimit="4" stroke-dashoffset="1.5" id="path5202" d="m-812.052506,935.606665c0.12205,0.007 0.25387,0.024 0.375,0.0312c8.79329,-37.73423 -31.86211,-40.4269 -35.375,-5.71875c4.26316,-4.61714 7.84241,-11.79761 15.59375,-10.70313c10.41119,1.47005 15.73563,7.99552 19.40625,16.39063l0,0.00005z"/>
    <path fill="#fddc64" stroke="#000000" stroke-width="1.25" stroke-linecap="round" stroke-linejoin="round" stroke-miterlimit="4" stroke-dashoffset="1.5" d="m-847.052506,929.919115c1.83579,-18.13803 13.8151,-26.062 23.57988,-24.10861l-5.84466,-0.73087c-9.76478,-1.95339 -21.74409,5.97058 -23.57988,24.10861" id="path5204"/>
   </g>
  </g>
 </g>
</svg>