<?xml version="1.0"?><svg width="138.322" height="138.188" xmlns="http://www.w3.org/2000/svg">
 <title>Blue Calendar img</title>

 <g>
  <title>Layer 1</title>
  <g externalResourcesRequired="false" id="g3">
   <path d="m136.669006,81.628998c0,16.681 0,33.362 0,50.044006c0,8.339996 -20.665993,4.988998 -25.895996,5.035995c-35.375999,0.320007 -70.755001,0.194 -106.13201,0.598007c-4.484,0.050995 -3.74,-4.697006 -3.697,-7.647003c0.125,-8.313004 0.212,-16.628006 0.273,-24.944c0.156,-21.158005 0.084,-42.316002 0.084,-63.473003c0,-12 0,-24.000999 0,-36c0,-5.146 8.066,-3.724 11.321,-3.724c33.232,0 66.462999,0 99.693003,0c4.165001,0 24.354004,-2.984 24.354004,4.05c0,25.353001 0,50.706001 0,76.059998" id="path5" fill="#FFFFFF"/>
   <path d="m4.784,0.646c-6.545,0 -4.342,13.481 -4.342,17.319c0,11.268999 0,22.536999 0,33.806c0,22.803997 0.037,45.607998 -0.242,68.412991c-0.054,4.51001 -0.122,9.019012 -0.193,13.528015c-0.081,5.177994 5.559,4.457977 8.97,4.422989c17.335,-0.184998 34.670999,-0.314987 52.008,-0.366989c20.792,-0.063004 41.584,-0.082001 62.375999,-0.324005c6.083,-0.070999 14.183006,1.501999 14.183006,-6.552017c0,-38.809982 0,-77.615982 0,-116.421983c0,-3.440001 1.46199,-11.734 -2.656006,-13.481c-3.451996,-1.467 -9.152,-0.342 -12.723,-0.342c-21.330002,0 -42.660004,0 -63.988003,0c-17.797997,-0.001 -35.593998,-0.001 -53.392998,-0.001m-3.045,133.195995c0,-42.058998 0.438,-84.123005 0.438,-126.184995c0,-4.561 1.884,-5.277 6.048,-5.277c7.339999,0 14.68,0 22.018,0c22.936001,0 45.869999,0 68.803989,0c3.653,0 36.749016,-2.81 36.749016,2.695c0,14.619 0,29.235002 0,43.853002c0,22.408997 0,44.819 0,67.227997c0,5.43 0,10.861 0,16.291008c0,5.946991 -20.765015,3.347 -24.271004,3.381989c-23.665001,0.220001 -47.332001,0.154007 -70.998001,0.302002c-3.665009,0.020996 -38.788,3.104996 -38.788,-2.289001" id="path7" fill="#A8A8A8"/>
   <path d="m127.391998,98.684998c-0.591995,9.806999 -21.064995,3.646004 -26.655998,6.219002c-2.869003,1.320999 -3.149002,3.682999 -3.745003,6.400002c-0.563995,2.565002 -1.637001,5.023003 -2.948997,7.289001c-1.057999,1.821999 -2.299004,3.534996 -3.678001,5.126999c-2.847,3.287003 -4.022995,3.625999 -8.242996,3.737999c-18.259003,0.481003 -36.523003,0.741997 -54.788002,0.920006c-4.285,0.042999 -16.221,2.584 -16.185,-4.031006c0.188001,-36.092003 0.376,-72.181 0.564,-108.272011c0.022,-4.209999 3.15,-4.136999 6.417,-4.136999c6.83,0 13.658001,0 20.486002,0c20.653,0 41.304996,0 61.958996,0c6.598999,0 13.200005,0 19.801003,0c5.021011,0 5.864998,2.125 5.931,6.945c0.360001,26.600012 0.718002,53.20101 1.085999,79.802008" id="path9" fill="#F4F4F4"/>
   <path d="m137.610001,30.657c0,5.078001 -9.771004,3.470999 -12.788002,3.470999c-9.146996,0 -18.292999,0 -27.439995,0c-23.029007,0 -46.059002,0 -69.087004,0c-7.118,0 -14.236,0 -21.354,0c-7.196,0 -6.357,-5.304998 -6.357,-11.396997c-0.001,-3.963001 -2.769,-22.731001 3.751,-22.731001c5.106,0 10.210999,0 15.316001,0c30.082001,0 60.165001,0 90.248001,0c8.036995,0 16.071999,0 24.104996,0c6.695999,0 3.606003,25.875 3.606003,30.657" id="path11" fill="#0000ff"/>
   <path d="m4.634,28.561001c-0.106,-0.089001 2.386,-13.563001 2.533,-15.017001c0.517,-5.030999 1.395,-6.962 6.609,-7.16c16.172,-0.62 32.357999,-1.259 48.543,-1.384c20.741997,-0.163 41.520996,0.379 62.238998,1.357c4.367996,0.205 5.938004,1.414 6.277008,5.957c0.260986,3.459 -0.586014,14.48 2.075989,16.960999c0.009003,0.007 1.305008,-8.396 1.360001,-9.181999c0.305008,-4.393001 0.516998,-8.791 0.689011,-13.189c0.213989,-5.406 -5.565002,-4.301 -9.195007,-4.301c-18.161003,0 -36.323997,0 -54.485001,0c-18.903,0 -37.803997,0 -56.707999,0c-2.87,0 -11.378,-1.422 -11.378,3.337c-0.838,2.799 0.184,7.371 0.296,10.254c0.088,2.223999 -0.754,10.763 1.144,12.367001" id="path13" fill="#007fff"/>
   <path d="m136.669006,33.624001c-36.086006,0 -72.173004,0 -108.258007,0c-7.654999,0 -15.311999,0 -22.968999,0c-1.512,0 -3.023,0 -4.537,0c-1.005,0 -0.705,-2.959 1.481,-2.997c36.954999,-0.617001 73.913011,-0.792002 110.871011,-0.333c6.414986,0.08 12.829987,0.172998 19.246986,0.285999c2.759003,0.051001 5.225998,-0.802 4.165009,3.044001" id="path15" fill="#00007f"/>
   <linearGradient id="XMLID_6_" x1="-1.279531" x2="18.959903" y1="0.501275" y2="0.501275">
    <stop id="stop18" offset="0" stop-color="#F4F4F4"/>
    <stop id="stop20" offset="1" stop-color="#6E6E6E"/>
   </linearGradient>
   <path d="m37.693001,62.636002c-4.771999,0 -9.545,0 -14.317001,0c-2.446999,0 -1.286999,3.93 -1.286999,5.984001c0,13.042 0,26.084999 0,39.127998c0,3.896996 0,7.795998 0,11.694c0,1.675995 9.474998,0.733002 11.145,0.733002c0.475998,0 4.458,0.238998 4.458,-0.196007c0,-3.126999 0,-6.251999 0,-9.378998c0,-4.664001 0.084999,-3.919998 -5.008003,-4.045998c-0.503998,-0.012001 -9.705997,-0.091003 -9.705997,-0.544998c0,-1.095001 14.714001,0.422997 14.714001,-1.214005c0,-4.546997 0,-9.092995 0,-13.639999c0.000999,-9.505997 0.000999,-19.011002 0.000999,-28.518997" id="path22" fill="url(#XMLID_6_)"/>
   <linearGradient id="XMLID_7_" x1="-1.366568" x2="19.714743" y1="0.499309" y2="0.499309">
    <stop id="stop25" offset="0" stop-color="#F4F4F4"/>
    <stop id="stop27" offset="1" stop-color="#6E6E6E"/>
   </linearGradient>
   <path d="m115.753998,48.750999c-4.965996,0 -9.932999,0 -14.897995,0c1.155998,17.456001 0.931,35.294998 0.112,52.760002c5.013,-0.127998 10.053001,-1.119003 14.543999,-3.411003c-0.175003,-5.437996 -0.240997,-10.877998 -0.271004,-16.318001c-0.064995,-10.986 -0.211998,-22.060997 0.513,-33.030998" id="path29" fill="url(#XMLID_7_)"/>
   <linearGradient id="XMLID_8_" x1="-2.702503" x2="33.983418" y1="0.018672" y2="0.018672">
    <stop id="stop32" offset="0" stop-color="#FFFFFF"/>
    <stop id="stop34" offset="1" stop-color="#737373"/>
   </linearGradient>
   <path d="m106.651001,105.013c-1.042999,-0.007004 -2.084,0.033997 -3.122002,0.122002c2.882004,0 5.766998,0 8.650002,0c-1.843002,-0.043999 -3.686005,-0.122002 -5.528,-0.122002" id="path36" fill="url(#XMLID_8_)"/>
   <path d="m23.867001,92.626999c0,1.794998 0.156,29.998001 -0.888,29.998001c-1.339001,0 -1.339001,-59.995998 0,-59.995998c1.044001,0 0.888,28.202 0.888,29.997997" id="path40" fill="#A8A8A8"/>
   <path d="m38.618,92.626999c0,1.794998 0.155998,29.998001 -0.888,29.998001c-1.338001,0 -1.338001,-59.995998 0,-59.995998c1.043999,0 0.888,28.202 0.888,29.997997" id="path42" fill="#A8A8A8"/>
   <path d="m53.659,83.516998c0,2.214005 0.155998,37.373001 -0.888,37.373001c-1.34,0 -1.34,-74.746998 0,-74.746998c1.043999,0 0.888,35.159 0.888,37.373989" id="path44" fill="#A8A8A8"/>
   <path d="m70.724998,83.516998c0,2.214005 0.155998,37.373001 -0.888,37.373001c-1.339996,0 -1.339996,-74.746998 0,-74.746998c1.043999,0 0.888,35.159 0.888,37.373989" id="path46" fill="#A8A8A8"/>
   <path d="m101.387001,76.146004c0,1.795998 0.145996,29.988998 -0.889999,29.988998c-1.347,0 -1.347,-59.992001 0,-59.992001c1.036995,0 0.889999,28.208996 0.889999,30.003002" id="path48" fill="#A8A8A8"/>
   <path d="m85.764,83.516998c0,2.214005 0.155998,37.373001 -0.888,37.373001c-1.340996,0 -1.340996,-74.746998 0,-74.746998c1.043999,0 0.888,35.159 0.888,37.373989" id="path50" fill="#A8A8A8"/>
   <path d="m117.004997,76.146004c0,1.795998 0.147003,29.988998 -0.889999,29.988998c-1.346001,0 -1.346001,-59.992001 0,-59.992001c1.038002,0 0.889999,28.208996 0.889999,30.003002" id="path52" fill="#A8A8A8"/>
   <path d="m69.753998,61.741001c2.75,0 46.772003,-0.158001 46.772003,0.888c0,1.34 -93.547001,1.34 -93.547001,0c0,-1.046001 44.023991,-0.888 46.77499,-0.888" id="path54" fill="#A8A8A8"/>
   <path d="m69.753998,75.624001c2.75,0 46.772003,-0.156998 46.772003,0.889c0,1.339996 -93.547001,1.339996 -93.547001,0c0,-1.045998 44.023991,-0.889 46.77499,-0.889" id="path56" fill="#A8A8A8"/>
   <path d="m69.753998,91.532997c2.75,0 46.772003,-0.157997 46.772003,0.888c0,1.341003 -93.547001,1.339005 -93.547001,0c0,-1.045998 44.023991,-0.888 46.77499,-0.888" id="path58" fill="#A8A8A8"/>
   <path d="m84.514999,47.278999c1.983002,0 33.313004,-0.155998 33.313004,0.888c0,1.339001 -66.628002,1.339001 -66.628002,0c0,-1.042999 31.331997,-0.888 33.314999,-0.888" id="path60" fill="#A8A8A8"/>
   <path d="m69.757004,105.116997c2.750999,0 46.764,-0.146996 46.764,0.893005c0,1.348999 -93.542004,1.348999 -93.542004,0c0,-1.040001 44.028004,-0.893005 46.778004,-0.893005" id="path62" fill="#A8A8A8"/>
   <path d="m54.445,119.879997c1.878002,0 31.461998,-0.156998 31.461998,0.887001c0,1.339005 -62.928997,1.339005 -62.928997,0c0.000999,-1.043999 29.589001,-0.887001 31.466999,-0.887001" id="path64" fill="#A8A8A8"/>
   <path d="m84.456001,134.419998c12.902,1.283997 25.941002,-5.427002 34.563995,-14.603996c4.806,-5.104004 7.468002,-11.811005 11.233009,-17.631004c3.541,-5.470001 2.46199,4.834 2.457001,6.959c-0.014008,6.110001 2.79599,21.350006 -4.888008,23.436996c-13.688995,3.722 -29.417999,2.433014 -43.365997,1.839005" id="path66" fill="#DBDBDB"/>
   <path d="m121.751999,103.944c-1.747002,0.380997 -3.556,0.470001 -5.338997,0.431999c-0.148003,1.740997 4.257996,0.015999 5.338997,-0.431999m9.059998,-28.235001c-0.382996,2.894997 -1.246994,5.736 -2.42099,8.403999c-2.239006,5.087997 0.163986,10.342003 -1.153008,15.583c4.950996,-6.498001 4.875999,-16.278 3.573997,-23.987" id="path68" fill="#DBDBDB"/>
   <path d="m127.223,86.499001c-1.667,3.082001 -3.864998,5.876999 -6.536003,8.152c-2.289993,1.946999 -3.899994,1.754997 -4.020996,4.945c-0.058998,1.593002 -0.124001,3.187996 -0.252998,4.778999c3.856995,0.084 6.958,-0.563004 9.715996,-3.393997c2.873001,-2.945 1.148003,-10.611 1.094002,-14.482002" id="path70" fill="#D2D2D2"/>
   <path d="m100.269997,105.139c-0.691994,0.378998 0.037003,0.302002 0,0" id="path72" fill="#DBDBDB"/>
   <path d="m100.026001,101.527c-2.859001,0 -4.988998,1.119003 -6.345001,3.719002c1.643997,0.017998 5.157997,0.68 6.588997,-0.107002c0,-0.981003 -0.192993,-2.5 -0.243996,-3.612" id="path74" fill="#D2D2D2"/>
   <path d="m115.787003,104.355003c0.030998,0.538994 0.086998,1.533997 0,0" id="path76" fill="#DBDBDB"/>
   <path d="m115.787003,103.992996c0.021996,0.559006 0.032997,0.407005 0,0" id="path78" fill="#D2D2D2"/>
   <path d="m96.578003,112.855003c-1.091003,3.576996 -2.999001,6.891998 -5.329002,9.800995c-2.885002,3.602005 -2.946999,8.68 -6.792999,11.764c9.140999,-2.643997 12.345001,-13.028 12.122002,-21.564995m1.934998,-6.140007c-0.138,0 -0.633003,0.477005 0,0m5.015999,-1.579994c-0.557999,-0.009003 -2.769997,-0.278 -2.833,0.209999c0.953003,0.073997 1.897003,0.004997 2.833,-0.209999m12.258003,0c-1.203003,0 -2.404999,0 -3.607002,0c1.200996,0.035995 2.403,0.035995 3.607002,0" id="path80" fill="#DBDBDB"/>
   <path d="m98.399002,106.716003c-5.759003,0.084 -5.936005,0.546997 -6.889999,6.181c-0.662003,3.909996 -1.061005,7.866997 -1.964005,11.735001c2.825005,-3.049004 5.176003,-6.604004 6.609001,-10.518005c0.996002,-2.711998 0.368004,-4.875999 2.245003,-7.397995" id="path82" fill="#D2D2D2"/>
   <linearGradient id="XMLID_9_" x1="-1.342613" x2="19.53888" y1="0.513476" y2="0.513476">
    <stop id="stop85" offset="0" stop-color="#DBDBDB"/>
    <stop id="stop87" offset="1" stop-color="#636363"/>
   </linearGradient>
   <path d="m107.734001,103.746002c-0.906998,0 -6.854004,0.006996 -7.012001,1.389c5.006996,0.128998 10.049004,0 15.064003,0c0,-0.261002 0,-0.519005 0,-0.778999c-2.704002,-0.110001 -5.337006,-0.610001 -8.052002,-0.610001" id="path89" fill="url(#XMLID_9_)"/>
   <linearGradient id="XMLID_10_" x1="-1.273228" x2="18.977434" y1="0.506021" y2="0.506021">
    <stop id="stop92" offset="0" stop-color="#D2D2D2"/>
    <stop id="stop94" offset="1" stop-color="#5E5E5E"/>
   </linearGradient>
   <path d="m100.182999,104.197998c0.013,0.284004 0.014,0.777 0.086998,0.937004c-0.028,-0.312004 -0.058998,-0.624001 -0.086998,-0.937004m15.329002,-6.098c-2.375999,1.211998 -4.920998,2.070999 -7.527,2.620003c-4.469002,0.941002 -6.751999,-0.731003 -7.237,4.179001c4.739998,-2.174004 10.091995,-0.740005 15.039001,-0.542999c-0.098999,-2.084999 -0.209,-4.169006 -0.275002,-6.256004" id="path96" fill="url(#XMLID_10_)"/>
   <path d="m100.968002,101.511002c-0.314003,0.007996 -0.629005,0.012001 -0.942001,0.016998c0.058998,1.271004 0.129997,2.542999 0.267998,3.811996c1.026001,0.017006 0.646004,-3.217995 0.674004,-3.828995" id="path98" fill="#909090"/>
   <path d="m116.738998,97.433998c-2.181,1.259003 -1.129997,5.245003 -0.850998,7.696999c1.116997,-0.036995 0.82,-6.684998 0.850998,-7.696999" id="path100" fill="#909090"/>
   <path d="m93.681,105.246002c-0.226997,0.513 -0.452003,1.023994 -0.679001,1.536995c3.722,-0.037994 5.489998,-0.771996 8.853004,-1.417999c-2.725006,-0.048996 -5.449005,-0.087997 -8.174004,-0.118996" id="path102" fill="#909090"/>
   <path d="m92.561996,134.115997c-1.093994,0.040009 -2.185997,0.068008 -3.280998,0.085007c1.101006,0.179993 2.195,0.151993 3.280998,-0.085007m39.330002,-39.092995c-0.921997,0 -4.598999,10.448997 -5.087997,11.389999c-4.499001,8.645996 -10.984001,16.568001 -18.904999,22.299004c8.117996,-4.695007 13.596001,-11.317009 18.181999,-19.327003c1.621002,-2.830002 3.028999,-6.117004 5.183998,-8.597c0.509995,-0.588005 1.953003,-5.764999 0.626999,-5.764999" id="path104" fill="#D0D0D0"/>
   <path d="m132.100006,100.186996c-3.054001,0.001007 -9.984993,15.934006 -12.037994,18.438004c-7.371002,8.999001 -17.637001,14.432007 -28.987,15.686005c6.482994,0.373993 13.431999,1.457993 19.419998,-1.320999c5.932999,-2.755005 12.438004,-6.721008 15.270996,-12.908005c1.570007,-3.429001 0.854004,-10.875 4.876999,-12.760002c1.858002,-0.871002 2.502991,-7.135002 1.457001,-7.135002" id="path106" fill="#BFBFBF"/>
   <path d="m99.574997,107.162003c0,3.574997 21.302002,3.200996 20.692001,-1.476006c-0.256996,-1.964996 -20.692001,-1.254997 -20.692001,1.476006" id="path108" fill="#FFFFFF"/>
  </g>
 </g>
</svg>