<?xml version="1.0" encoding="UTF-8" standalone="no"?>
<!-- Created with Inkscape (http://www.inkscape.org/) -->

<svg
   xmlns:dc="http://purl.org/dc/elements/1.1/"
   xmlns:cc="http://creativecommons.org/ns#"
   xmlns:rdf="http://www.w3.org/1999/02/22-rdf-syntax-ns#"
   xmlns:svg="http://www.w3.org/2000/svg"
   xmlns="http://www.w3.org/2000/svg"
   xmlns:sodipodi="http://sodipodi.sourceforge.net/DTD/sodipodi-0.dtd"
   xmlns:inkscape="http://www.inkscape.org/namespaces/inkscape"
   width="282"
   height="282"
   id="svg2"
   version="1.1"
   inkscape:version="0.48.4 r9939"
   sodipodi:docname="New document 1">
  <defs
     id="defs4" />
  <sodipodi:namedview
     id="base"
     pagecolor="#ffffff"
     bordercolor="#666666"
     borderopacity="1.0"
     inkscape:pageopacity="0.0"
     inkscape:pageshadow="2"
     inkscape:zoom="5.6"
     inkscape:cx="181.39224"
     inkscape:cy="158.94481"
     inkscape:document-units="px"
     inkscape:current-layer="layer1"
     showgrid="false"
     inkscape:window-width="1313"
     inkscape:window-height="744"
     inkscape:window-x="53"
     inkscape:window-y="24"
     inkscape:window-maximized="1" />
  <metadata
     id="metadata7">
    <rdf:RDF>
      <cc:Work
         rdf:about="">
        <dc:format>image/svg+xml</dc:format>
        <dc:type
           rdf:resource="http://purl.org/dc/dcmitype/StillImage" />
        <dc:title></dc:title>
      </cc:Work>
    </rdf:RDF>
  </metadata>
  <g
     inkscape:label="Layer 1"
     inkscape:groupmode="layer"
     id="layer1"
     transform="translate(0,-770.36218)">
    <path
       style="opacity:1;fill:#ffffff;stroke:none;stroke-opacity:1;fill-opacity:1"
       d="m 137.5016,943.0109 c -1.70763,-1.70762 -2.45455,-3.56302 -2.45455,-6.09723 0,-3.12609 0.92181,-4.59751 6.5,-10.37551 3.575,-3.70306 8.83597,-8.30734 8.83597,-8.91993 0,-0.52099 -9.03182,-0.26054 -23.9312,-0.34665 -20.78777,-0.12014 -19.5556,0.49577 -22.49492,-2.66691 -2.74118,-2.94949 -2.52298,-8.12506 -0.93096,-11.09978 0.53839,-1.00599 2.6056,-2.5492 4.33862,-3.1868 1.43902,-0.52943 4.71289,-0.53697 21.83171,-0.53697 13.72596,0 21.12362,0.0607 21.06049,-0.41232 -0.0851,-0.63781 -5.13471,-5.273 -8.70971,-8.97606 -5.22071,-5.40772 -6.5,-7.35754 -6.5,-9.90698 0,-2.17494 0.35196,-4.66254 2.35487,-6.66544 1.60769,-1.6077 4.78356,-2.2286 5.66854,-2.2286 5.34488,0 8.57183,3.75445 22.22659,17.58448 14.45664,14.64219 14.75,15.02597 14.75,19.29576 0,4.29165 -0.24109,4.59914 -16.21048,20.67497 -15.33436,15.43657 -16.41774,16.31852 -20.04545,16.31852 -2.73837,0 -4.53685,-0.70187 -6.28952,-2.45455 z"
       id="path3824"
       inkscape:connector-curvature="0"
       sodipodi:nodetypes="sssssssssssssssssss" />
    <path
       sodipodi:type="arc"
       style="fill:#ffffff;fill-opacity:1;stroke:none"
       id="path3826"
       sodipodi:cx="208.24927"
       sodipodi:cy="138.27423"
       sodipodi:rx="12.279667"
       sodipodi:ry="11.90086"
       d="m 220.52893,138.27423 a 12.279667,11.90086 0 1 1 -24.55933,0 12.279667,11.90086 0 1 1 24.55933,0 z"
       transform="matrix(0.99999998,0,0,1.0150049,0.17857139,768.46596)" />
    <path
       sodipodi:type="arc"
       style="opacity:1;fill:#ffffff;fill-opacity:1;stroke:none;stroke-opacity:1"
       id="path3828"
       sodipodi:cx="73.741135"
       sodipodi:cy="138.27423"
       sodipodi:rx="12.248099"
       sodipodi:ry="12.090263"
       d="m 85.989234,138.27423 a 12.248099,12.090263 0 1 1 -24.496199,0 12.248099,12.090263 0 1 1 24.496199,0 z"
       transform="translate(0,770.36218)" />
  </g>
</svg>
