<svg xmlns="http://www.w3.org/2000/svg" width="282" height="282"><path d="M137.502 172.65c-1.708-1.71-2.455-3.564-2.455-6.1 0-3.125.922-4.596 6.5-10.374 3.575-3.703 8.836-8.307 8.836-8.92 0-.52-9.032-.26-23.93-.347-20.79-.12-19.557.493-22.496-2.67-2.74-2.95-2.523-8.125-.93-11.1.537-1.005 2.605-2.548 4.338-3.186 1.44-.53 4.712-.537 21.83-.537 13.727 0 21.125.06 21.062-.413-.085-.638-5.135-5.273-8.71-8.976-5.22-5.408-6.5-7.358-6.5-9.907 0-2.174.352-4.662 2.355-6.665 1.608-1.608 4.783-2.228 5.668-2.228 5.345 0 8.572 3.753 22.227 17.583 14.457 14.642 14.75 15.026 14.75 19.296 0 4.29-.24 4.6-16.21 20.674-15.335 15.436-16.418 16.318-20.046 16.318-2.735 0-4.534-.702-6.286-2.454zm83.205-34.197a12.28 12.08 0 1 1-24.56 0 12.28 12.08 0 1 1 24.56 0zm-134.717-.18a12.248 12.09 0 1 1-24.497 0 12.248 12.09 0 1 1 24.496 0z" fill="#fff"/></svg>