<?xml version="1.0" encoding="UTF-8" standalone="no"?>
<!DOCTYPE svg  PUBLIC '-//W3C//DTD SVG 1.1//EN'  'http://www.w3.org/Graphics/SVG/1.1/DTD/svg11.dtd' [
	<!ENTITY ns_extend "http://ns.adobe.com/Extensibility/1.0/">
	<!ENTITY ns_ai "http://ns.adobe.com/AdobeIllustrator/10.0/">
	<!ENTITY ns_graphs "http://ns.adobe.com/Graphs/1.0/">
]>
<svg xmlns="http://www.w3.org/2000/svg" xml:space="preserve" height="170.08px" viewBox="0 0 340.157 170.079" width="340.16px" version="1.1" xmlns:xlink="http://www.w3.org/1999/xlink" y="0px" x="0px" enable-background="new 0 0 340.157 170.079">
<switch>
	<g>
			<defs>
				<rect id="b" width="340.16" height="170.08"/>
			</defs>
			<clipPath id="a">
				<use overflow="visible" xlink:href="#b"/>
			</clipPath>
			<path clip-path="url(#a)" d="m80.778 96.51c-7.105 5.032-12.73 7.993-19.539 7.993-4.736 0-10.657-2.665-14.653-7.55 7.104-7.104 18.354-17.466 23.387-21.019l10.805 20.579zm0-35.822c-5.625-10.805-6.957-12.878-18.206-12.73h-22.202v2.369h0.888c8.585 0 16.726 2.96 19.686 8.585l4.885 9.029c-3.848 9.325-13.766 19.242-24.275 28.124l-11.25 9.474c5.033 6.068 10.806 11.396 19.983 11.396 4.589 0 9.177-0.74 17.614-6.661l14.654-10.509 6.069 11.398c1.924 3.552 6.957 5.771 12.138 5.771 6.068 0 11.693-0.444 18.058-1.184v-2.368c-7.105 0-11.249-0.444-18.206-14.21l-19.832-38.492z" fill="#A00631"/>
			<path clip-path="url(#a)" d="m94.977 79.764c1.216-0.043 1.758 0.187 1.913 0.572 0.31 0.211 0.273 0.675-0.246 1.333-0.23 0.541-3.727 5.205-5.265 6.948-1.981 2.033-5.098 4.862-7.235 6.511-0.693 0.504-1.464 0.815-1.813 0.508-0.677-0.286-0.699-1.175-0.204-3.28 0.822-2.126 1.662-5.044 4.506-8.548 2.057-2.401 5.353-3.957 8.344-4.044m4.428-3.471c0.002 0.56-0.421 1.179-0.613 1.257-0.597 0.465-1.138 0.235-1.602 0.198-3.149-0.857-7.027-0.188-10.378 2.063-5.393 3.3-8.306 9.411-9.623 13.642-0.345 0.812-1.036 1.876-1.633 2.341-0.578 0.234-1.349 0.546-2.565 0.588-2.76 0.106-5.854-1.445-6.592-2.718-0.522-0.461-0.235-1.138-0.12-1.408 0.114-0.271 0.693-0.505 1.427-0.353 1.062 0.132 2.104-0.065 3.26-0.532 2.217-0.896 3.846-4.356 2.6-7.441-1.208-2.988-4.435-4.038-7.693-2.946-4.108 1.211-6.526 5.215-5.12 9.804 1.68 5.824 11.702 12.314 21.532 8.342 6.843-2.765 13.937-11.013 16.813-16.659 0.23-0.541 0.827-1.007 1.02-1.084 0.385-0.156 1.041-0.197 1.97 0.437 1.605 0.921 2.653 2.403 3.276 3.945 0.818 2.023-0.2 3.669-1.164 4.058-1.638 0.662-3.416 0.147-5.099-0.967l-1.345 1.665c2.167 1.479 4.621 2.281 7.416 1.151 2.217-0.896 3.267-4.122 2.216-6.725-1.129-2.795-3.278-4.506-4.631-5.08-0.349-0.308-1.064-0.691-1.142-0.884-0.195-0.482-0.139-1.177 0.205-1.989l1.284-2.649c0.037-0.464 0.538-0.89 0.808-0.775 0.193-0.078 0.657-0.041 1.276 0.382 2.692 2.5 7.317 5.9 12.328 3.875 3.567-1.44 6.18-4.963 7.097-7.687 0.211-0.31 0.246-1.333-0.103-1.641-0.348-0.308-0.715-0.383-2.335 0.047-0.849 0.119-2.26-0.321-2.571-1.092-0.156-0.385-0.197-1.041 0.708-1.855 0.961-0.949 2.904-3.079 3.441-3.969 0.595-1.025 0.743-2.879-0.534-3.82-1.528-0.728-2.992 0.087-3.741 1.287-0.691 1.064-1.2 4.521-1.545 5.333-0.422 0.619-0.923 1.045-1.675 1.125-0.464-0.037-1.005-0.267-1.163-1.212-0.311-0.771-0.66-1.079-1.123-1.116-0.193 0.078-0.5 0.427-0.826 1.007-0.729 1.527-2.093 3.424-4.309 4.319-1.735 0.701-3.878 0.67-4.54-0.968-0.467-1.157 0.298-3.148 2.162-5.47 1.21-1.723 2.73-3.234 4.596-4.997 2.291-1.822 4.504-3.837 4.453-7.292 0.04-5.174-0.777-7.198-1.86-7.657-0.908-0.306-1.872 0.084-2.487 0.781-1.02 1.084-2.254 1.359-2.795 1.129-0.947-0.402-1.374-0.902-1.378-2.022-0.106-2.76-1.776-5.785-3.228-6.88-0.89-0.537-2.089-1.286-2.957-0.936-1.156 0.468-1.306 1.761-0.917 2.725 0.507 1.253 1.089 2.139 1.515 2.64 0.234 0.578 0.392 1.523 0.277 1.794-0.326 0.58-1.212 1.162-2.217 0.895-1.372-0.342-2.145-0.591-3.301-0.123-1.446 0.584-2.537 3.155-1.642 5.372 0.974 2.409 2.273 4.238 3.745 5.662 1.163 1.212 2.603 4.778 3.036 6.958 0.551 3.028 0.193 5.751-1.349 6.374-1.445 0.584-2.721 0.203-4.599-1.393-1.703-1.442-3.333-3.81-3.919-5.816-0.391-1.523-0.547-1.909-1.01-1.946-0.271-0.115-0.983 0.621-1.098 0.892-0.537 0.89-1.037 1.316-1.597 1.318-0.464-0.037-0.89-0.538-1.124-1.116-1.713-4.241-2.102-5.204-2.99-5.182-2.336 0.047-3.417 5.417-1.903 8.056 2.29 3.447 2.796 4.7 2.489 5.049-0.23 0.541-1.001 0.853-2.68 0.858-1.583-0.033-2.047-0.07-2.373 0.51-0.115 0.271 0.197 1.042 1.455 2.215 2.249 2.791 5.013 3.805 8.275 3.832 2.992-0.087 7.928-1.745 9.757-3.045 0.964-0.389 1.928-0.779 2.315-0.375 0.445 0.269 0.679 0.847 0.316 1.891l-1.875 4.003z" fill="#D3A15A"/>
			<path clip-path="url(#a)" d="m269.91 132.75h0.926v-4.146c0-1.25 0.528-2.734 2.22-2.734 1.28 0 1.78 0.912 1.78 2.322v4.558h0.924v-4.792c0-1.647-0.704-2.88-2.558-2.88-1.559 0-2.116 0.836-2.426 1.513h-0.03v-1.336h-0.895c0.059 0.601 0.059 1.188 0.059 1.762v5.74zm-7.88-3.75c0-1.735 0.868-3.132 2.485-3.132 1.618 0 2.486 1.396 2.486 3.132s-0.868 3.132-2.486 3.132c-1.62 0-2.49-1.39-2.49-3.13m-1.01 0c0 2.044 1.071 3.924 3.497 3.924 2.427 0 3.498-1.88 3.498-3.924 0-2.043-1.071-3.924-3.498-3.924-2.43 0-3.5 1.88-3.5 3.92m-0.87-3.75h-0.97l-2.16 6.247h-0.03l0.016 0.015-2.102-6.262h-1.014l2.659 7.585-0.191 0.662c-0.294 0.97-0.558 1.631-1.352 1.631-0.338 0-0.515-0.059-0.69-0.117l-0.088 0.792c0.308 0.073 0.661 0.117 0.999 0.117 1.043 0 1.572-1.027 1.925-2.056l2.99-8.61zm-11.35 7.5h5.128v-0.88h-4.116v-9.379h-1.012v10.26zm-11.29-4.28c0-1.236 0.838-2.604 2.206-2.604 1.383 0 1.912 1.295 1.912 2.604h-4.12zm4.57 3.1c-0.44 0.279-1.427 0.559-2.103 0.559-1.618 0-2.471-1.279-2.471-2.868h5.13v-0.469c0-2.015-0.865-3.719-2.983-3.719-1.896 0-3.159 1.631-3.159 3.924 0 2.25 0.925 3.924 3.409 3.924 0.692 0 1.53-0.146 2.177-0.41v-0.93zm-12.77-2.57c0-1.455 0.455-3.132 2.22-3.132 1.647 0 2.221 1.765 2.221 3.132 0 1.368-0.573 3.132-2.221 3.132-1.77 0-2.22-1.67-2.22-3.13m5.36-7.28h-0.925v4.79h-0.029c-0.132-0.367-0.867-1.438-2.338-1.438-2.206 0-3.086 1.645-3.086 3.924 0 2.221 1.026 3.924 3.086 3.924 1.073 0 1.838-0.41 2.338-1.365h0.029v1.189h0.925v-11.01zm-17.21 6.75c0-1.236 0.839-2.604 2.205-2.604 1.384 0 1.912 1.295 1.912 2.604h-4.11zm4.57 3.1c-0.439 0.279-1.425 0.559-2.102 0.559-1.618 0-2.471-1.279-2.471-2.868h5.131v-0.469c0-2.015-0.866-3.719-2.983-3.719-1.897 0-3.16 1.631-3.16 3.924 0 2.25 0.924 3.924 3.41 3.924 0.691 0 1.529-0.146 2.175-0.41v-0.93zm-12.07-3.1c0-1.236 0.839-2.604 2.206-2.604 1.383 0 1.911 1.295 1.911 2.604h-4.12zm4.58 3.1c-0.439 0.279-1.425 0.559-2.102 0.559-1.618 0-2.471-1.279-2.471-2.868h5.131v-0.469c0-2.015-0.866-3.719-2.983-3.719-1.897 0-3.16 1.631-3.16 3.924 0 2.25 0.924 3.924 3.41 3.924 0.691 0 1.529-0.146 2.175-0.41v-0.93zm-3.37-7.1h0.675l1.851-2.115h-1.16l-1.36 2.11zm-6.7 8.28h0.924v-3.704c0-1.354 0.396-2.999 1.867-2.999 0.234 0 0.484 0.029 0.676 0.088v-0.969c-0.162-0.044-0.426-0.088-0.647-0.088-0.955 0-1.588 0.777-1.926 1.615h-0.029v-1.438h-0.924c0.06 0.542 0.06 0.851 0.06 1.674v5.82zm-1.73-7.38c-0.265-0.087-0.91-0.293-1.808-0.293-2.22 0-3.703 1.615-3.703 3.924 0 2.088 1.175 3.924 3.585 3.924 0.706 0 1.294-0.044 1.926-0.264l-0.088-0.866c-0.559 0.206-1.103 0.338-1.69 0.338-1.69 0-2.72-1.426-2.72-3.132 0-1.823 1.015-3.132 2.822-3.132 0.5 0 1.104 0.162 1.604 0.383l0.07-0.88zm-8.22 4.06c0 0.809-0.044 2.706-2.221 2.706-0.854 0-1.56-0.367-1.56-1.354 0-1.646 1.912-1.809 3.515-1.809h0.266v0.45zm0.08 3.32h0.91c-0.074-0.514-0.074-0.97-0.074-1.572v-3.307c0-1.956-0.777-2.793-2.63-2.793-0.662 0-1.633 0.234-2.206 0.514v0.896c0.691-0.44 1.426-0.617 2.206-0.617 1.25 0 1.706 0.647 1.706 1.928v0.382h-0.177c-1.941 0-4.615 0.117-4.615 2.631 0 0.676 0.337 2.115 2.468 2.115 0.927 0 1.971-0.484 2.383-1.38h0.029v1.21zm-10.83-0.18c0.661 0.264 1.38 0.352 2.101 0.352 1.134 0 2.616-0.542 2.616-2.13 0-2.455-3.689-2.279-3.689-3.676 0-0.955 0.662-1.25 1.618-1.25 0.515 0 1.177 0.133 1.66 0.353l0.088-0.808c-0.659-0.249-1.453-0.337-1.851-0.337-1.236 0-2.44 0.558-2.44 2.042 0 2.177 3.603 1.896 3.603 3.676 0 0.853-0.78 1.338-1.663 1.338-0.72 0-1.396-0.191-1.954-0.47l-0.1 0.92zm-10.62-4.1c0-1.236 0.838-2.604 2.206-2.604 1.382 0 1.912 1.295 1.912 2.604h-4.12zm4.58 3.1c-0.44 0.279-1.426 0.559-2.103 0.559-1.617 0-2.471-1.279-2.471-2.868h5.13v-0.469c0-2.015-0.864-3.719-2.982-3.719-1.897 0-3.159 1.631-3.159 3.924 0 2.25 0.924 3.924 3.409 3.924 0.69 0 1.529-0.146 2.176-0.41v-0.93zm-7.5-6.32h-0.924v4.145c0 1.25-0.53 2.734-2.221 2.734-1.28 0-1.78-0.911-1.78-2.322v-4.557h-0.924v4.792c0 1.646 0.704 2.879 2.557 2.879 1.559 0 2.117-0.836 2.426-1.512h0.03v1.336h0.895c-0.059-0.602-0.059-1.189-0.059-1.763v-5.74zm-13.6 3.75c0-1.455 0.456-3.132 2.221-3.132 1.647 0 2.221 1.765 2.221 3.132 0 1.368-0.574 3.132-2.221 3.132-1.76 0-2.22-1.67-2.22-3.13m5.37-3.75h-0.924v1.218h-0.03c-0.176-0.264-0.75-1.395-2.338-1.395-2.206 0-3.086 1.645-3.086 3.924 0 2.221 1.027 3.924 3.086 3.924 1.176 0 1.882-0.484 2.338-1.453h0.03v4.364h0.924v-10.58zm-8.42-3.23h-0.924v1.233h0.924v-1.23zm-0.93 10.73h0.924v-7.495h-0.924v7.49zm-6.53-0.18c0.66 0.264 1.38 0.352 2.101 0.352 1.133 0 2.616-0.542 2.616-2.13 0-2.455-3.69-2.279-3.69-3.676 0-0.955 0.662-1.25 1.618-1.25 0.515 0 1.177 0.133 1.661 0.353l0.088-0.808c-0.66-0.249-1.455-0.337-1.852-0.337-1.235 0-2.439 0.558-2.439 2.042 0 2.177 3.601 1.896 3.601 3.676 0 0.853-0.779 1.338-1.662 1.338-0.721 0-1.396-0.191-1.954-0.47l-0.1 0.92zm-1.81-7.32h-0.924v4.145c0 1.25-0.53 2.734-2.221 2.734-1.279 0-1.779-0.911-1.779-2.322v-4.557h-0.925v4.792c0 1.646 0.704 2.879 2.557 2.879 1.559 0 2.118-0.836 2.426-1.512h0.03v1.336h0.895c-0.059-0.602-0.059-1.189-0.059-1.763v-5.74zm-8.26 7.5v-5.16c0-1.455-0.851-2.512-2.366-2.512-1.176 0-2.059 0.704-2.397 1.586h-0.029c-0.235-1.308-1.322-1.586-1.984-1.586-1.603 0-2.044 0.938-2.338 1.454l-0.029-0.016v-1.262h-0.896c0.059 0.601 0.059 1.188 0.059 1.762v5.733h0.925v-4.146c0-1.867 1-2.734 2.014-2.734 1.192 0 1.589 0.838 1.589 1.896v4.983h0.924v-4.146c0-1.867 1-2.734 2.015-2.734 1.191 0 1.588 0.838 1.588 1.896v4.983h0.94zm-21.25-4.28c0-1.236 0.838-2.604 2.206-2.604 1.382 0 1.911 1.295 1.911 2.604h-4.12zm4.57 3.1c-0.44 0.279-1.425 0.559-2.102 0.559-1.617 0-2.47-1.279-2.47-2.868h5.13v-0.469c0-2.015-0.866-3.719-2.983-3.719-1.897 0-3.16 1.631-3.16 3.924 0 2.25 0.925 3.924 3.41 3.924 0.691 0 1.529-0.146 2.175-0.41v-0.93zm-12.78-2.57c0-1.455 0.456-3.132 2.221-3.132 1.647 0 2.22 1.765 2.22 3.132 0 1.368-0.573 3.132-2.22 3.132-1.76 0-2.22-1.67-2.22-3.13m5.37-7.28h-0.924v4.79h-0.029c-0.133-0.367-0.868-1.438-2.338-1.438-2.206 0-3.086 1.645-3.086 3.924 0 2.221 1.027 3.924 3.086 3.924 1.073 0 1.838-0.41 2.338-1.365h0.029v1.189h0.924v-11.01zm-17.214 6.75c0-1.236 0.838-2.604 2.206-2.604 1.382 0 1.912 1.295 1.912 2.604h-4.118zm4.572 3.1c-0.441 0.279-1.426 0.559-2.103 0.559-1.617 0-2.47-1.279-2.47-2.868h5.13v-0.469c0-2.015-0.866-3.719-2.983-3.719-1.897 0-3.16 1.631-3.16 3.924 0 2.25 0.925 3.924 3.41 3.924 0.691 0 1.529-0.146 2.176-0.41v-0.93zm-7.512-9.55h-0.924v1.233h0.924v-1.23zm-0.925 10.73h0.924v-7.495h-0.924v7.49zm-2.413 0v-5.16c0-1.455-0.851-2.512-2.365-2.512-1.177 0-2.059 0.704-2.397 1.586h-0.029c-0.235-1.308-1.322-1.586-1.984-1.586-1.603 0-2.045 0.938-2.339 1.454l-0.029-0.016v-1.262h-0.895c0.059 0.601 0.059 1.188 0.059 1.762v5.733h0.924v-4.146c0-1.867 1-2.734 2.015-2.734 1.191 0 1.588 0.838 1.588 1.896v4.983h0.925v-4.146c0-1.867 1-2.734 2.015-2.734 1.191 0 1.588 0.838 1.588 1.896v4.983h0.924zm-17.022-4.28c0-1.236 0.838-2.604 2.206-2.604 1.382 0 1.912 1.295 1.912 2.604h-4.118zm4.573 3.1c-0.44 0.279-1.425 0.559-2.102 0.559-1.617 0-2.47-1.279-2.47-2.868h5.13v-0.469c0-2.015-0.866-3.719-2.983-3.719-1.897 0-3.16 1.631-3.16 3.924 0 2.25 0.925 3.924 3.41 3.924 0.691 0 1.529-0.146 2.175-0.41v-0.93zm-3.366-7.1h0.676l1.85-2.115h-1.16l-1.366 2.11zm-9.409 4.53c0-1.455 0.456-3.132 2.221-3.132 1.647 0 2.22 1.765 2.22 3.132 0 1.368-0.573 3.132-2.22 3.132-1.765 0-2.221-1.67-2.221-3.13m5.365-7.28h-0.925v4.79h-0.029c-0.132-0.367-0.868-1.438-2.338-1.438-2.206 0-3.086 1.645-3.086 3.924 0 2.221 1.027 3.924 3.086 3.924 1.073 0 1.838-0.41 2.338-1.365h0.029v1.189h0.925v-11.01zm-9.214 7.71c0 0.809-0.045 2.706-2.221 2.706-0.853 0-1.559-0.367-1.559-1.354 0-1.646 1.912-1.809 3.515-1.809h0.265v0.45zm0.087 3.32h0.909c-0.073-0.514-0.073-0.97-0.073-1.572v-3.307c0-1.956-0.778-2.793-2.63-2.793-0.662 0-1.633 0.234-2.206 0.514v0.896c0.691-0.44 1.426-0.617 2.206-0.617 1.25 0 1.706 0.647 1.706 1.928v0.382h-0.177c-1.941 0-4.616 0.117-4.616 2.631 0 0.676 0.338 2.115 2.469 2.115 0.926 0 1.971-0.484 2.382-1.38h0.03v1.21zm-6.028-7.38c-0.264-0.087-0.911-0.293-1.808-0.293-2.22 0-3.703 1.615-3.703 3.924 0 2.088 1.175 3.924 3.585 3.924 0.706 0 1.294-0.044 1.926-0.264l-0.088-0.866c-0.559 0.206-1.103 0.338-1.691 0.338-1.69 0-2.719-1.426-2.719-3.132 0-1.823 1.014-3.132 2.822-3.132 0.5 0 1.103 0.162 1.603 0.383l0.073-0.88zm-8.23 4.06c0 0.809-0.044 2.706-2.221 2.706-0.853 0-1.559-0.367-1.559-1.354 0-1.646 1.912-1.809 3.515-1.809h0.265v0.45zm0.088 3.32h0.91c-0.074-0.514-0.074-0.97-0.074-1.572v-3.307c0-1.956-0.777-2.793-2.63-2.793-0.662 0-1.633 0.234-2.206 0.514v0.896c0.691-0.44 1.426-0.617 2.206-0.617 1.25 0 1.706 0.647 1.706 1.928v0.382h-0.177c-1.941 0-4.615 0.117-4.615 2.631 0 0.676 0.337 2.115 2.468 2.115 0.927 0 1.971-0.484 2.383-1.38h0.029v1.21z" fill="#6A5B5A"/>
			<path clip-path="url(#a)" d="m309.85 74.028h-13.032v1.8c4.104 0.576 4.608 1.368 3.744 4.104-1.512 4.536-4.608 13.032-6.624 17.928l-6.552-18.072c-0.937-2.664-0.576-3.384 2.735-3.96v-1.8h-14.61v1.8c3.96 0.576 4.68 1.512 6.191 5.472 2.16 5.112 5.4 13.824 8.28 22.032 0.432 1.224 0.432 2.16 0.072 3.24-0.288 0.936-0.864 2.447-2.232 4.968-1.656 3.168-3.096 4.968-5.328 6.408-1.224 0.792-1.872 1.439-1.872 2.592 0 1.728 2.089 3.456 4.104 3.456 1.008 0 1.944-0.36 2.304-1.729 1.008-3.888 2.592-7.991 7.416-19.512 4.968-11.88 7.2-17.856 9-21.672 1.944-4.104 2.592-4.68 6.408-5.256v-1.804zm-34.99 31.462v-1.872c-4.607-0.433-5.184-0.864-5.184-5.616v-43.776c-2.448 0.864-6.912 2.088-10.656 2.52v1.728c4.536 0.36 4.968 0.576 4.968 5.472v34.056c0 4.752-0.647 5.184-5.184 5.616v1.872h16.05z" fill="#A00631"/>
			<path clip-path="url(#a)" d="m245.56 99.444c-1.368 1.296-3.888 2.52-5.76 2.592-2.232 0-5.112-1.8-5.112-5.544 0-2.592 1.584-3.96 4.392-5.256 1.513-0.721 4.969-2.232 6.48-3.024v11.228zm11.38 3.236l-0.72-1.872c-0.721 0.433-1.729 0.792-2.592 0.792-1.225 0-2.521-1.08-2.521-4.319v-13.389c0-3.744-0.72-6.696-3.24-8.784-1.584-1.296-3.744-1.944-5.903-1.944-4.104 0.792-8.784 3.6-10.801 5.04-1.367 1.008-2.304 1.8-2.304 2.88 0 1.656 1.872 3.096 3.168 3.096 1.008 0 1.8-0.504 2.088-1.656 0.576-2.232 1.225-3.816 2.16-4.752 0.72-0.864 1.8-1.44 3.24-1.44 3.6 0 6.048 2.952 6.048 8.136v1.296c-1.584 1.296-6.84 3.24-11.16 4.681-3.96 1.367-5.832 3.6-5.832 7.128 0 4.536 3.528 8.783 8.641 8.783 2.159 0 5.615-2.663 8.495-4.607 0.36 1.224 0.792 2.231 1.729 3.24 0.792 0.72 2.304 1.367 3.384 1.367l6.11-3.68zm-35-20.588c-0.216-1.8-1.008-6.048-1.584-7.704-1.512-0.576-3.456-1.224-6.408-1.224-6.624 0-10.943 4.248-10.943 9.288 0 5.544 4.68 7.92 9 9.936 3.6 1.656 5.688 3.384 5.688 6.552 0 3.024-2.447 5.04-5.111 5.04-4.32 0-7.561-4.176-8.856-8.928l-1.872 0.36c0 2.592 0.648 7.488 1.152 8.496 1.296 1.08 4.607 2.447 8.279 2.447 5.761 0 11.881-3.384 11.881-9.936 0-4.968-3.673-7.56-9.072-9.792-3.24-1.368-6.12-3.024-6.12-6.264 0-2.808 1.944-4.968 4.68-4.968 3.528 0 6.048 2.88 7.416 7.128l1.86-0.436z" fill="#8C9465"/>
			<path clip-path="url(#a)" d="m199.91 74.028h-12.815v1.8c4.104 0.504 4.536 1.296 3.456 4.752-1.584 4.68-3.889 11.231-6.408 17.208-2.088-5.185-4.968-12.744-6.84-17.784-1.152-3.096-1.008-3.672 2.88-4.176v-1.8h-14.76v1.8c3.888 0.576 4.464 1.08 6.121 5.256 3.384 8.352 6.695 16.56 9.936 25.2h1.944c3.96-10.729 7.775-19.584 10.151-24.984 1.944-4.32 2.593-4.968 6.336-5.472v-1.796zm-34.34 31.462v-1.872c-4.104-0.433-4.68-0.72-4.68-5.544v-13.896c0-7.056-3.528-11.016-9.144-11.016-2.016 0-3.888 0.864-5.4 1.872-1.8 1.08-3.888 2.448-5.976 4.032-1.44-3.744-4.536-5.904-7.992-5.904-2.304 0-4.032 0.792-5.904 1.944-2.16 1.368-3.744 2.664-5.256 3.672v-5.832c-3.168 1.44-6.84 2.376-10.008 2.952v1.656c4.176 0.648 4.392 1.008 4.392 5.616v14.904c0 4.68-0.648 5.111-5.4 5.544v1.872h15.192v-1.872c-3.528-0.433-4.104-0.864-4.104-5.544v-16.92c2.16-1.8 4.968-3.744 7.848-3.744 4.392 0 6.264 2.952 6.264 8.28v12.384c0 4.752-0.648 5.111-5.112 5.544v1.872h15.408v-1.872c-3.96-0.433-4.608-0.864-4.608-5.4v-14.04c0-1.368-0.072-2.16-0.216-3.024 2.736-2.304 5.472-3.744 8.064-3.744 4.536 0 6.336 3.24 6.336 8.352v12.024c0 5.112-0.792 5.399-5.04 5.832v1.872h15.34z" fill="#D3A15A"/>
	</g>
</switch>
</svg>
