<?xml version="1.0"?>
<svg width="310" height="386.082" xmlns="http://www.w3.org/2000/svg" xmlns:svg="http://www.w3.org/2000/svg">
 <title>teacher</title>
 <metadata id="metadata3">EPS converted from  http://aiga.orgsymbolmapsymOpen Clip Art LibraryJean-Victor BalinJean-Victor Balinimage/svg+xmlen</metadata>
 <g>
  <title>Layer 1</title>
  <path id="path2731" fill="#000000" d="m104.646,84.389c20.54,0 37.194,-16.651 37.194,-37.193c0,-20.542 -16.65399,-37.196 -37.194,-37.196c-20.5433,0 -37.1963,16.654 -37.1963,37.196c0,20.542 16.653,37.193 37.1963,37.193z"/>
  <path id="path2733" fill="#000000" d="m7.0637,213.256l32.679,0l19.792,-71.858l8.031,0l-19.332,71.858l115.6063,0l-20.713,-71.858l8.438,0l11.04599,35.22399c5.22901,14.87801 18.41101,18.31701 28.53601,5.63601l40.068,-48.383c12.5,-16.25 -10.125,-33.375 -23.25,-19.125l-23.625,28.25c0,0.46899 -4.5,-15.5 -4.5,-15.5c-5.5,-19 -23.5,-37.675 -50.5,-37.675l-51.0003,0c-24,0 -42.895,21.008 -46.802,34.195l-24.474,89.236z"/>
  <path id="path2743" fill="#000000" d="m201.519,233.79401l0,-17.02301l-200.519,0l0,17.02301l200.519,0z"/>
  <path id="path2743-1" fill="#000000" d="m191.532,387.082l0,-151.033l-178.532,0l0,151.033l178.532,0z"/>
  <path id="path2735-0-4" fill="#ffffff" d="m187.494,375.54901l0,-130.84801l-168.494,0l0,130.84801l168.494,0z"/>
  <path id="path2743-1-8" fill="#000000" d="m185.91,373.909l0,-127.86699l-165.91,0l0,127.86699l165.91,0z"/>
  <path id="svg_1" fill="#000000" d="m7.0637,213.256l32.679,0l19.792,-71.858l8.031,0l-19.332,71.858l115.6063,0l-20.713,-71.858l8.438,0l11.04599,35.22399c5.22901,14.87801 18.41101,18.31701 28.53601,5.63601l40.068,-48.383c12.5,-16.25 -10.125,-33.375 -23.25,-19.125l-23.625,28.25c0,0.46899 -4.5,-15.5 -4.5,-15.5c-5.5,-19 -23.5,-37.675 -50.5,-37.675l-51.0003,0c-24,0 -42.895,21.008 -46.802,34.195l-24.474,89.236z"/>
  <path id="svg_2" fill="#000000" d="m7.0637,213.256l32.679,0l19.792,-71.858l8.031,0l-19.332,71.858l115.6063,0l-20.713,-71.858l8.438,0l11.04599,35.22399c5.22901,14.87801 18.41101,18.31701 28.53601,5.63601l40.068,-48.383c12.5,-16.25 -10.125,-33.375 -23.25,-19.125l-23.625,28.25c0,0.46899 -4.5,-15.5 -4.5,-15.5c-5.5,-19 -23.5,-37.675 -50.5,-37.675l-51.0003,0c-24,0 -42.895,21.008 -46.802,34.195l-24.474,89.236z"/>
  <path id="svg_3" fill="#000000" d="m7.0637,213.256l32.679,0l19.792,-71.858l8.031,0l-19.332,71.858l115.6063,0l-20.713,-71.858l8.438,0l11.04599,35.22399c5.22901,14.87801 18.41101,18.31701 28.53601,5.63601l40.068,-48.383c12.5,-16.25 -10.125,-33.375 -23.25,-19.125l-23.625,28.25c0,0.46899 -4.5,-15.5 -4.5,-15.5c-5.5,-19 -23.5,-37.675 -50.5,-37.675l-51.0003,0c-24,0 -42.895,21.008 -46.802,34.195l-24.474,89.236z"/>
  <line id="svg_4" fill="none" stroke="#000000" stroke-width="5" x1="226.033" y1="117.918" x2="306.033" y2="20.918"/>
 </g>
</svg>